<svg data-name="Layer 1" xmlns="http://www.w3.org/2000/svg" viewBox="0 0 1600 55" aria-hidden="true" focusable="false"><path d="M1596.64 2.24l-1.13-.56c0 .56-.56.56-.56 1.12s-.56.56-.56 1.13h-1.12v1.12h-1.12l-.56-.56v.56h-2.25c-.56.56-1.68 0-2.24 0-.56.56-.56.56-2.24 0l-1.12.56h-.56l-.57-.56a.55.55 0 00-.56.56v-.56c-.56.56-.56 0-.56 0h-.56v.56l-.56.56V5.05l-.56.56v-.56c-.56 0-.56 0-.56-.56-.56 0-.56 0-.56.56h-.56v-.56h-.56v.56l-.56-.56-2.25 1.12v.56l-.56.56s-.56.56-.56 0c-.56-.56-.56 0-.56 0h.56v.56l-1.68.56a.55.55 0 00-.56.56h-1.12a.55.55 0 00-.56-.56l-.56.56h-.57V9h-1.68l-.56-.56-.56.56h-1.12l-.56.56H1563V7.85h-.56c-.57 0-.57 0-.57-.56l-.56.56-.56-.56c-.56 0-.56.56-1.12 0l-.56.56h.56a.55.55 0 01-.56.56l-1.12.56v-.56a.55.55 0 00-.56.56h-.56v1.12h.56a.55.55 0 00-.56-.56V9l-.56.56-.57-.56v1.12L1554 9h-.56l-.56.56h-1.12c0 .56-.56 1.13-1.12 1.69h-1.12c-.56 0-.56-.56-.56-1.13h-1.13v.57l-1.68-.57-.56-.56-.56.56.56.57c0 .56 0 .56-.56.56l-.56-.56V9.53a.55.55 0 00-.56.56v-.56h-.56l-.55-.53h.56c-.56 0-.56.56-1.12.56l-.56-.56c-.57 0-.57 0-.57-.56l-.56-.56a.55.55 0 00-.56-.56l-.56-.56-.56 1.12v-.59h-.56a.55.55 0 01-.56.56v-.56l-1.12.56V6.17a1.79 1.79 0 01-1.63 1.68v.56h-.57l.57.59h-.57a.55.55 0 00-.56.56l-.56-.56v-.59l-.56.56h-.56l-.56.56c0 .56 0 .56-.56 1.13v.56h-.56l-.56.56h.56v.56l-.56-.56h-1.12l-.56-.56h-.56v.56l-.57.56v-.56l-.56.56-1.68-1.12c0-.56.56 0 .56-.56-1.12-.57-1.68 0-2.8.56h-.56a.55.55 0 00-.56.56v.56h-1.13l-1.12-1.12v.56h-.56v1.12h.56l-.56.56-2.24 1.12v.56h-.56v-.56h-.56l.56-.56-.56.56V14l-.56.56c-.56 0-.56 0-.56.56v.56h-.57c0 .56-1.12.56-1.12 1.12h-.56l-.56.57-2.8-.57h-.64v-1.1a1.2 1.2 0 00-1.12 1.12 1.22 1.22 0 01-1.13 1.13h-.56l-.56 1.12v-1.68h-.56v-.57l.56-.56h-.56l-.56.56h-.51a.56.56 0 01-.56.57l.56-.57-1.12-.56c-.56.56-1.12-.56-1.68 0v.56h-.57c0 .57 0 .57-.56 1.13-.56 0-.56.56-1.12.56v.56l-.56.56h-.56l-.56.56h-.56l-.56.56v.56h-.56c0 .56-1.12 1.12-1.69 1.68v.56l-.56.56h-.56l.56.57h-.56l-1.12.56-.56.56-.56-.56v.56h-.54c0-.56 0-.56-.56-.56a.55.55 0 01-.56.56v-1.12h-.56l-.56-.57v.57l-.57-.57h-.56c-.56 0-1.12-.56-1.68 0v-.56c0-.56-.56-.56-.56-1.12-.56 0-.56-.56-1.12-.56l-.56.56h-.56v-.56h-.56l-.56.56a.55.55 0 00.56.56h.56v.56H1480l-.56-.56-.57.56h-.56c0 .56-.56.56-.56 1.13h-.56c0 .56 0 .56-.56.56v.56c-.56 0 0-.56-.56-.56l-.56 1.12-.56-1.12v1.12c-.56 0-.56.56-1.12 1.12V25.8h-1.12c0-.56 0-.56.56-.56l-.56-.56-.57.56-.56-.56v.56l-.56.56v-.56h-.56v.56c-.56.56-.56 0-1.12 0a.55.55 0 00-.56.56h-.56a2.06 2.06 0 01-.56 1.68h-.56v-1.12l-.56.56V28h.56v-.56h.56l-.56-.56-.56 1.12h-.54l-1.13.56h-.56l-.56.56c-.56.56-1.12 1.12-1.68 1.12v.56h-.56v.57a.56.56 0 00-.56-.57l.56-.56h-.56v-.56h-.56v.56h-.56l-.56.56-1.13-.56-.56.56h.56v-.56l-.56.56-.56-.56v.56h-.56l-.56-.56.56-.56-.56-.56-.56.56c-.56 0 0-.56-.56-.56l.56-.56h-1.12l-.56.56v.56h-.56l-.56-.56c0 .56-.56.56-.56 1.12v.56h-.57v-1.08h-.56v1.12h-.56v-1.12h-.56v-.56l-.56-.56.56-.56v-1.12h-.56l-.56.56c-.56-.56-.56 0-1.12-.56l.56-.56.56-.56-.56-.56h-.56v1.12L1448 28c-.56 0-.56-.56-.56-1.12l-.56.56c0 .56 0 .56.56.56l-.56.56a.55.55 0 00-.56-.56h-1.12l-1.13-.56h-.56l-.51.56v-.56l-.56-.56-.56.56h-.56l-.56-.56v-.56c-.56 0-.56.56-1.12.56v-.56h-1.69l1.13.56a.55.55 0 01-.56.56V28l.56.56-1.13-.56a.56.56 0 00.57.56h-1.13l-1.68 1.12v-.56h-.56a.55.55 0 00.56-.56.55.55 0 01.56-.56c0-.56 0-.56.56-.56h-.56v-.56h-.56v.56H1434v1.16h-.56v.56h-.56v-1.68h-.56V28a2.09 2.09 0 00-1.69.56l-.56.56v.56c-.56 0-.56 0-.56.56v.56c-.56-.56-1.12 0-1.68 0v.57h-1.12V32l-.56-.56-.56.56v-.56l-.59.56.56.56-.56-.56-.56-1.69v.56h-1.13v.57h-.56c0-.57.56 0 .56 0 0-.57-.56 0-.56 0l-.56.56-.56-.56v-.57l-1.12-.56h-.51l-.56-.56-.56.56-.56-.56v-.56h-.56v-.59l-.57.56h-1.68c0-.56 0-.56-.56-1.12a.55.55 0 01-.56.56l-1.12-1.12h-.56a.55.55 0 01-.56-.56v-.56l-1.68-.56-.57-.56v.56a.55.55 0 00-.56-.56l-1.12.56a.55.55 0 01-.56-.56v-.56h-.56v.56l-.56-.56h-.54l.56-.57v-.56h.56l.56-.56h-.56v.56h-.56l-.56.56V23c-.56 0-1.12 0-1.12 1.12h-1.12c-.57 0 0 .57 0 .57l-1.69-.57h-.56c0 .57-.56 0-1.12 0l-.56 1.13-.56.56c-.56-.56-.56-.56-1.68-.56v1.12c-.56.56-.56 0-1.13 0v1.12h-.56v-.56h-1.12l-.56.56V28l-.56-.56-.56.56v-1.08c0 .56-.56.56-1.12.56V28h-.56c0 .56-.56 1.12 0 1.12l-.56.56h-1.12l.56.56-.56.56v-.56c-.57 0-1.13.56-1.69 0a.55.55 0 00-.56.56l-1.12-.56-.56-.56v1.12a2 2 0 00-1.68.57c-.56 0-.56.56-1.12.56h-.57v.56a4.23 4.23 0 01-2.24-.56h.56l-.56-.56a.55.55 0 01-.56-.57h-.64v-.56l.56-.56-.56-.56-1.12.56-.56-.56h.56v-.52h-.56l-.56.56h-.56c-.57 0-.57 0-.57-.56h-.56l-.56-.56v.56h-1.12V28l.56-.56c-.56-.56-.56 0-1.12 0 0-.56 0-.56-.56-.56a.55.55 0 00-.56-.56l-.56.56v.56h-1.12V28h-.56v-1.08l.56-.56-.56-.56-1.13 1.68h-.56l-.56-.56-.56.56-.56-.56h-.56l-.56-.56v1.12l-1.12.56c0 .56-1.12.56-1.12 1.12h-.56v.56l-.57.56h.57v-.56a.55.55 0 00-.57.56 2 2 0 00-.56 1.13L1360 32v-.56h-1.12l-1.12 1.12v.56h-.56l-.56.56c0 .56-.56 0-.56.56-.56 0-.56 0-1.13.56h-2.8l-.56-1.68h-.59l-1.68-1.12v-.56l-1.69.56v-.56l-.56-.57c-.56.57-1.12 0-2.24-1.12h-.56v.56h-.56v-.56h-.56v.56h-.56c0 .56 0 .56-.56.56l-.56-.56-.57.56.57.57h-.57V32h-.56v.56h-.56l-.56-.56c-.56 0-.56 0-.56.56l-.56 1.12-.56-.56-.56.56h.56c0 .56 0 .56-.56.56v-.56h-.56v.56l-.56.56-1.12-1.12v-1.15l.56-.56c-.56-.56-.56-1.13-1.13-2.25l-.56.56h-1.68l-.56-.56.56-.56-.56-.56V28c-1.12 0-1.68.56-2.24.56a.55.55 0 01-.56-.56h-.57l-.57.56h-.56V28a2.06 2.06 0 01-.56 1.68c-.56 0-.56.56-1.12.56v-.56l-.56-.56-.56.56-.56.56v.56h-.51l-.6 1.2v.56l-.56.56h-1.69l-1.68.56h-1.12c0 .56-.56.56-1.12.56l-.56-.56h-1.12v-.56c-.56 0-.56-.56-1.13-1.12h-.56v-.56h.56l.57-.57h-1.69c0-.56-.56-.56-1.12-1.12h-.56l-.56-.56-1.12.56v1.69l-1.12.56-.56-1.13h-1.13v.57h.56l-.56-.57v-1.15h-.56a.55.55 0 00-.56.56l-.56.56h-.56l-.56.57h-.56l-1.68 1.12-1.69.56-.56-.56a.55.55 0 01-.56.56c-.56-.56 0-.56 0-1.12h.56v-.56h-1.68l.56.56h-1.12v-.56h-1.68v-.57h-.56l-1.12-1.68h-.57v-.56h-1.12l-2.8-.56v-1.12h.56l-1.12-.56.56-.56-1.12-.56v.56h-.56c0-.56-.56-.56-1.13-1.12v-1.13a.55.55 0 00-.56.56h.56v.57h-.56l-.56.56h-.56l-.56-.56-.56.56h-2.24c-.56 0-.56 1.12-1.12 1.12h-2.25l-.56-.56a2 2 0 00-.56-1.12v-.57l-1.12.57-.56-.57h-2.24l-1.13-.56h-.56v.56h-1.12c-.56 0-.56 0-1.12.57a2 2 0 01-1.12.56l-.56.56c-.56.56-1.69 0-2.25 1.12v.56l-.56.56h-.56l.56-.56H1263a1.2 1.2 0 01-1.12 1.12l-.56.56H1259l.56.56-1.13.56v-.56h-.56v-.56l-.56-.56h1.12l.57-.6-.57-.56h-5c0 .56-.56 0-.56.56h-2.25v.56c-.56.56-.56.56-1.12 0l.56-.56-.56-.56h-1.12l-.56 1.12h-.56c-.56.56-1.68 0-2.24 0 0 .56-1.13.56-1.13 1.12-.56 0-.56 0-1.12-.56a.55.55 0 01-.56-.56h-1.12c-.56 0-.56 0-1.12-.56a1.73 1.73 0 011.12-.56c-1.12-.56-1.68 0-2.8 0v-1.08h-1.13v.56h-.56l-.56.56c0 .56 0 1.12-.56 1.12V28h-1.12v2.8a.55.55 0 01-.56-.56h-.56v.56h-1.12v-2.2h-.56v.56h-.56v1.68h-.56v.57c0 .56 0 0-.56 0h-.56l-1.12 1.12.56-.56.56.56V32a2.06 2.06 0 01-1.68.56l-.56-.56-.56.56-1.68-.56-.56.56A3.38 3.38 0 011222 32h-2.8l-.56-.56H1217l-1.12.56h-4.48l-1.13-1.13a2 2 0 01-1.12-.56H1208c-.56 0-1.12.56-1.68.56l-.56.57-.56-.57-2.25-.56c-.56.56-1.68 0-2.24 0l-.56-.56h.56l-.56-.56h-1.68v-.59c-.56 0-.56-.56-1.12-.56s-1.13.56-1.69 0l-.56-.56h-.56l-2.24.56h-.56c-.56 0-.56-.56-1.12-.56l-.56-.56c-.57 0-1.13-.56-2.25-1.12l-.56-.56-.56.56-.56.56v.56H1185V25.8l-.56-.56-2.25 1.12h-1.68l-.56-.56-1.12.56h-1.12v-1.12h-.56l-.56.56h-1.69s.56.56 0 .56l-1.12 1.12c-.56-.56-1.12 0-1.68 0V28l-1.1-1.08h-.56l-1.69-1.68c-.56 0-1.12-.56-1.68-.56v.56c0 .56-1.12.56-1.12.56v.56h-.56v-.56h-1.12v.56s-.56.56 0 .56l-1.7 1.08a2.07 2.07 0 01-1.69-.56h-.56l.56.56v-1.08h.56l-.56-.56h-1.12v.56l-1.68 1.08h1.12a.55.55 0 00.56.56.55.55 0 01.56.56v.56c.56 0 .56.56 1.12 0l-.56-.56 1.12.56.57-.56h1.12v.56l-2.81.56v.56l-.56.57c0-.57-.56 0-1.12 0l.56.56-.56.56-.56-.56v-.56h-1.12l-.52.63h-1.12l-.56-.56h-1.69l-.56-.57v-.56l-1.68.56-1.68-1.12.56-.56 2.8-.56c-.56 0-1.12 0-1.68-1.12h-1.12l-1.12 1.12-.56 1.12h-1.13c-.56 0-.56.56-1.12.56h-.56l-.56.56c0 .57-1.12.57-1.12 1.13h-.56l-.56-.56h-1.12l-.57-.57c-.56 0-1.12.57-1.68.57V32l-1.12.56V32h-1.12v-1.72h-2.24l-2.25-.56 1.12.56-.56 1.13a2.09 2.09 0 01-.56-1.69h-2.24a.55.55 0 00-.56.56h-.56a.55.55 0 00-.56.56h.56v.57l-.56-.57v.57l-.56-1.13.56-.56a.55.55 0 00-.56-.56 2.08 2.08 0 00-1.69.56l-1.12 1.12-.56-.56h-1.12v-1.12h-.56v.56l-.56-.56-.56.56v-.56h-.56c0 .56-1.13.56-1.69 1.68v-.56h-.56l-.56-.56-1.12 1.69v-.57c-.56 0-.56 0-1.12.57-.56 0-.56-.57-1.12-.57s0 1.13-1.12 1.13l.56-.56c-.56-.57-.56-.57-1.12-.57v.57l-1.13.56h-.56v.56c-.56 0-.56.56-1.12 0-.56 0-.56.56-.56 0l-1.12 1.12h-1.12l2.24 1.12v-.56h-.56l-.56.56h-1.12l-.56.56h-1.13v.56h-.56l-.56-.56h-.56v-.56l-1.12-.56a.55.55 0 00-.56-.56v-.56h-.56l-.56.56h-1.12l-.56-.56-.57.56v-.56h-1.12l.56 2.24v-1.12h-.56l-.56.56h-.56l-.56.56v-.56l-.56-.56v-.56l-.56.56h-1.12v.56h-2.25l-.56-.56c-.56 0-.56-.56-1.12-.56v.56l-.56-.56-.56 1.12c-.56 0-.56-.56-1.12 0l.56.56h-.56c-.56 0-.56-.56-.56-1.12l-.56-.56h-.56l-.56-.56a.55.55 0 00-.57-.56v1.12l-.56 1.12v.56l-.56.56v.56h-3.92a2.09 2.09 0 00-1.73.55h-1.68l-2.24 2.25c-.56 0-1.12.56-1.68.56a.55.55 0 01-.56.56l-.57-.56v.56h-.56v.56c-.56 0-.56.56-1.12.56 0 .56-.56.56-.56 1.12l-1.12-.56-.56.56c0-.56-.56 0-.56-.56l-.56-.56h-.56v-.56h-.56l.56-.56v.56h-1.12a.56.56 0 01-.57.56c-.56 0-.56.56-1.12.56l-.56-.56c0 .56-.56 1.12-.56 1.68h-.56l-.56.56-.56-.56-.56.56-1.12 1.13-.56-.57h-.57v-.56h-.56a.55.55 0 00-.56.56h-.56a.55.55 0 01-.56.57l-.56.56c-.56 0-1.12.56-1.68 0l-.56.56v.56h-1.12l-.57-.56v-.56h-.52V46h-.56v.56l-1.12-.56a.55.55 0 00-.56-.56.55.55 0 00-.56-.56c-.56 0-.56 0-.56-.57h-.64v-.56l-.56-1.12-.56.56a.55.55 0 01-.56.56l-.56-.56v-.56l-.57-.56v-.57h-.56l-.56-.56s-.56.56-.56 0l-.56-.56v-.56l-.56-.56-.56-.56v.56c0 .56-.56 0-.56 0v.56h-.56a.55.55 0 00-.56-.56v.56l-1.69-.56v.56l-.56-.56-.56.56v-.56l-.56-.56-.56-.56c-.56 0-1.12.56-1.68.56v-.56c0-.57 0 0-.56 0v.56h-1.12l-1.13-.56v1.12h-.56c-.56 0-.56.56-1.12.56h-.56v.56h-.49c0 .56-1.12.56-1.12 1.12h-1.12v.56a.55.55 0 01-.56-.56h.56v-.56h-.56a.55.55 0 01-.56-.56.56.56 0 01-.57-.56l-1.12-.56v1.12h-.56v-.56c0 .56 0 .56-.56 1.12v-1.12l-.56 1.12h-.56c-.56-.56-.56-1.12-1.12-1.68h-.59l-.56-.56V37h-1.12l-.57-.56v-.56l-.56-.56v-.56c0-.56-.56 0-.56 0v.56h.56l-.56-.56v-.56h-1.12c-.56.56-.56.56-1.12.56v-1.11h-.56c0 .56-.56 0-.56.56l-.56.56h-.56v.56c-.56 0-.56 0-1.13-.56l-.56-.56h-.56l-.56-.56v.56l1.12.56-1.12.56v-.56h-.56c0-.56.56-.56.56-1.12v-2.24l-.56.56h.56v1.12l-1.12.56-1.68.56v-.56l-.56-.56v-.56c.56 0 0-.56.56-.56h1.12v1.68h1.12c-.56 0 0-.56-.56-.56v.56c0-.56-.56 0-.56 0a.78.78 0 01-1.12 0h-2.81a.55.55 0 01-.56-.56l-.56-.56h-.56l-.56-.56c0-.56-.56 0-.56-.56h-.56s-.56-.57-.56 0c-.56 0-.56 0-1.12-.57h-.56a2.05 2.05 0 01-1.69.57h-.56c0 .56 0 1.12-.56 1.12.56 1.12.56 1.12 0 1.12l-.56.56h-1.12v.56h-1.12v-.56h-1.68l-.57-.56h-1.12V32h-.56v1.68H987l.56-.56v-.56a.55.55 0 00-.56.56v-.56h-.56l-.56.56.56.56h-3.36v-.56h-.57a.55.55 0 01-.56-.56.55.55 0 00-.56-.56v-1.16h-.56c0-.56.56-.56 0-1.12l.56-1.12h-.56v.56h-1.12v-.56a2.06 2.06 0 00-1.68.56l-.56-.56c.56 0 .56.56 1.12 0h.56V28c-.56 0-.56-.56-1.12-.56l-1.68.56v-1.64h-1.69l-.56 1.12a.55.55 0 00-.56-.56l-.56-.56h-1.68l-.56.56v-.56h-1.12l.56.56-.56-.56c-.56 0-.56.56-.56 1.12l-.57-.56c-.56 0-1.12-1.12-1.68-1.12l-.56-.56h-1.12l.56 1.68-.56.56-.56-.56h.56V25.8h-.56v-.56h-1.12v-.56h-.56v-.57h-.57v.57h-.56l-.56.56-2.2.56-.56-.56v-.56a.78.78 0 000 1.12h-.56c-.56 0-1.68-.56-2.24-.56l-.56.56h-.57c-.56 0-1.12 0-1.12.56h-.56l-.56.56h-.56l.56-.56c0-.56 0 0-.56 0a.78.78 0 00-1.12 0h-1.12l-.56.56h-.56l-.57-.56h-.56c-.56-.56.56-.56 0-.56l.56-.56-.56.56-1.12-.56v-.56l-.56-.57-.56-.56a.55.55 0 01-.56-.56h-1.68L941 24.11l.56.57h-1.12v-.57h-1.12c-.56 0-.56.57-1.12.57v-.57l-.56.57v.56h.56v.56h-.56c-.56 0-.56-.56-1.12-.56v.56H936l-.56-.56h-1.12v.56l-3.32-.56-1.68.56-.56-.56c-.56 0 0 0 0 .56l.56.56-1.12.56v-.56h-.56l-.57.56a3.37 3.37 0 00-2.24-.56l-.56-.56h-1.17a.55.55 0 00-.56.56H922c-.56 0-.56 0-.56.56v.56h-.57V28l-.56-.56h-.56v-.56l-.56.56v-.56a.55.55 0 01-.56.56v-.56h.56v-1.64h-.56l-.56 1.12-.56.56v-.56l-1.12-.56a.55.55 0 01-.56.56l-.56.56h-1.13V28H913v-.56c0 .56 0 .56-.56.56v-.56l-.56.56c-.56 0-.56-.56-.56-1.12h-.56v.56c0-.56-.56 0-.56 0l-1.68-.56L908 28v.56c-.56.56-.56 0-1.12 0l-.57-.56h-.56v.56c-.56 0-.56.56-1.12.56v-.52h-1.12V28h-1.68l-.56 1.12v-.52h-1.69v.56l1.13.56h-1.13v.56l-2.24 1.13s-.56-.57-.56 0c-.56 0-.56.56-1.12.56-.56.56-1.12 0-1.68.56h-.56a.55.55 0 01-.56-.56v-1.13h-.57v-1.12c-.56 0-1.12-.56-1.68-.56H890c0-.56-.56-.56-1.12-.56V28h-.56l-.56.56V28c-.56 0 0-.56-.56-.56V28l-.56-1.12h-.56v.56l-.57-.56H885l-1.12-.56-.56.56-1.12-2.81s.56-.56 0-.56l-.56.56-1.12-1.68h-.56l-.57-.56h-.56l.56-.56h-.56v-1.08l-.56.56h-.56l-.56-.56H876c-.56 0-1.12.56-1.68 0-.56.56-1.12 0-1.12.56h.56l-.56.56v-.56h-1.12a.56.56 0 01-.57-.56l-.56-.56h-1.12v-1.12l-.56.56c-.56-.56-.56 0-1.12 0H867l-.56.56v.56h-.56v.56c-.56 0-.56 0-.56.56h-.57v.56h-1.12v-.56c-.56 0-1.12.56-1.68.56v-.56h-.56c0-.56.56 0 .56-.56a2.06 2.06 0 01-1.68-.56l-.56-.56c0-.56 0-.56.56-1.12a7.63 7.63 0 00-1.69-2.25h-1.12v-.56c-.56.56-1.12.56-2.24.56v-.56h-.56l-.56.56h-.56v-.56h-1.12l-.56.56h-.57v.56h-1.68l.56-.56v-.56l.56-.56-.56-.56c-.56.56-.56.56-.56 1.12l-.56.56-.56-.56-.56.56v-.56h-.56l-.56-.56v-.56l-.56-.56-1.12.56h.56l-.56.56-.56-.56-.57.56h-1.1c0 .56 0 .56-.56 1.12l-.56.56v.57h-1.12c0 .56 0 .56-.56.56a.55.55 0 00.56.56h-.56l-.56-.56-.56-.56h-.56l-.57.56.57.56-.57.56h-.56v.56h.56a.55.55 0 01-.56.56v-.56h-1.12l-.56.56h-.56v.56c0-.56 0-.56-.56-.56v-.56h-.56v-.56c-.56-.56-.56 0-.56 0l-.56-.56h-.56v.56l-1.13.56-.56-.56h.56v-.56l.57-.56-1.69-.56.56-.57.56-1.12-.56.56h-1.12s-.56-.56-.56 0v-.56l-.56-.56-.56.56-.56-.56v-.56l-1.12.56-.56-.56h.56L824.4 14v-.56l-1.69-.56a.55.55 0 01-.56.56.55.55 0 00-.56.56l-.56-.56-.56.56-.56-.56.56-.56v-.56l.56-.56v-.56a2.06 2.06 0 001.68-.56V9L821 10.09h-1.68c-.56.57-1.12.57-1.68 1.13h-.57v-.56h-.56v.56H816v.56h-1.12v-.56l-.56-.56c0 .56-.56 0-.56 0h-1.12l-.56-.57v1.13c-.56 0 0-.56 0-.56l-.56-.57v1.13h.56l-.56-.56c2.24.56 1.68.56 1.68 1.12a2 2 0 00-.56 1.12v-1.12h-1.14v-.56h-.56v-.56h-.56v-.57h-.57l-.56-.56-.56.56.56.57c0 .56 0 .56-.56.56h-.56v-.56l-.56-.57v-.56l-.56.56v-.56c-.56 0-.56 0-.56.56l.56-.56h-1.12a.55.55 0 01-.56.56V9c-.56 0-.56 0-.56-.56l-.56-.56a.55.55 0 00-.56-.56l-.57-.56-.56 1.12v-.59H802a.55.55 0 01-.56.56v-.56l-1.12.56V6.73l-.56-.56A1.79 1.79 0 01798 7.85v.56h-.56L798 9h-.56a.55.55 0 00-.56.56l-.53-.56v.56h-.56l-.56.56c0 .57 0 .57-.56 1.13l-.56.56v-.56h-.56l-.56.56h.56v.56l-.56-.56h-1.12l-.56-.56h-.56v.56l-.56.56v-.56l-.57.56-1.68-1.12c0-.56.56 0 .56-.56-1.12-.57-1.68 0-2.8.56h-.56a.55.55 0 00-.56.56v.56h-1.12l-1.13-1.12v.56h-.56v1.09h.56l-.56.56-2.24 1.12v.56H779v-.56h-.56L779 14l-.56.56V14l-.56.56c-.56 0-.56 0-.56.56v.56h-.56c0 .56-1.13.56-1.13 1.12H775l-.56.57-2.24-.57h-.56v-1.1a1.2 1.2 0 00-1.12 1.12 1.21 1.21 0 01-1.08 1.18h-.56l-.57 1.12v-2.86l.57-.56h-.57l-.56.56h-.56a.55.55 0 01-.56.56h-.56l-1.07-.56c-.56.56-1.12-.56-1.68 0v.56h-.56c0 .57 0 .57-.56 1.13-.57 0-.57.56-1.13.56v.56l-.56.56h-.56l-.56.56h-.56l-.56.56v.56h-.56c0 .56-1.12 1.12-1.68 1.68v.56l-.57.56h-.56l.56.57h-.56l-1.12.56-.56.56-.56-.56v.56h-.56c0-.56 0-.56-.56-.56a.55.55 0 01-.56.56v-1.12h-.56l-.56-.57v.57l-.56-.57h-.56c-.57 0-1.13-.56-1.69 0v-.56c0-.56-.56-.56-.56-1.12-.56 0-.56-.56-1.12-.56v.56h-.56v-.56h-.56l-.56.56a.55.55 0 00.56.56h.56v.56h-1.12l-.56-.56-.56.56H742c0 .56-.56.56-.56 1.13h-.57c0 .56 0 .56-.56.56v.56c-.56 0 0-.56-.56-.56l-.56 1.12-.56-1.12-.56.56c-.56 0-.56.56-1.12 1.12V25.8h-1.12c0-.56 0-.56.56-.56l-.56-.56-.56.56-.57-.56v.56l-.56.56v-.56h-.56v.56c-.56.56-.56 0-1.12 0a.55.55 0 00-.56.56h-.56a2.06 2.06 0 01-.56 1.68h-.56v-1.12l-.56.56v1.12l.56-.56h.56v-.56h.56l-.56-.56-.6 1.08h-.56l-.56.56h-.56l-.56.56c-.56.56-1.13 1.12-1.69 1.12v.56h-.56v.57a.56.56 0 00-.56-.57l.56-.56h-.56v-.56h-.56v.56h-1.12l-1.12-.56-.56.56-.56.56v-.56l-.56.56-.57-.56v.56h-.56l-.56-.56.56-.56-.56-.56-.56.56c-.56 0 0-.56-.56-.56l.56-.56h-1.12l-.56.56v.56h-.56l-.56-.56c0 .56-.56.56-.56 1.12v.56h-.56v-1.08h-.57v1.12h-.56v-1.12h-.56v-.56l-.56-.56.56-.56v-1.12h-.56l-.56.56c-.56-.56-.56 0-1.12-.56l.56-.56.56-.56.56 1.12h-.56V28c-.56 0-.56-.56-.56-1.12l-.56.56c.56 0 .56.56 1.12.56l-.56.56a.55.55 0 00-.56-.56h-1.12l-1.12-.56h-1.69l-.56.56v-.56l-.56-.56-.56.56h-.56l-.56-.56v-.56c-.56 0-.56.56-1.12.56v-.56H701l1.12.56a.55.55 0 01-.56.56V28l.56.56L701 28a.55.55 0 00.56.56h-1.12l-.56.56v-.52h-.57a.55.55 0 00.57-.56.55.55 0 01.56-.56c0-.56 0-.56.56-.56h-.56v-.56h-.56v.56h-1.69V28h-.56v.56h-.56v-1.08h-.56V28a2.06 2.06 0 00-1.68.56h.56v.56c-.56 0-.56 0-.56.56v.56c-.56-.56-1.12 0-1.69 0v.56H692v.57l-2.24-1.13-.56.56.56.57-.56-.57-1.12-.56v.56H687v.57h-.57c0-.57.57 0 .57 0 0-.57-.57 0-.57 0l-.55.56-.57-.56v-.57l-1.12-.56h-.56l-.56-.56-.56.56-.56-.56v-.56h-.56v-.52l-.56.56h-1.68c0-.56 0-.56-.57-1.12a.55.55 0 01-.56.56l-1.12-1.12h-.56a.55.55 0 01-.56-.56v-.56l-1.68-.56-.56-.56v.56a.55.55 0 00-.56-.56l-1.13.56a.55.55 0 01-.56-.56v-.56h-.56v.56l-.56-.56h-.56l.56-.57v-.56h.56l.56-.56h-.56v.56h-.56l-.56.56V23c-.56 0-1.12 0-1.12 1.12h-1.12c-.56 0 0 .57 0 .57l-.56.56h-.56c0 .56-.57 0-1.13 0l-.56 1.12-.56.56c-.56-.56-.56-.56-1.68-.56v1.12c-.56.56-.56 0-1.12 0V28h-.56v.56h-.56V28H659l-.56.56v.56l-.57-.56-.56.56h-.56v-2.2c0 .56-.56.56-1.12.56V28H655c0 .56-.56 1.12 0 1.12l-.56.56h-1.12l.56.56-.56.56v-.56c-.56 0-1.12.56-1.69 0a.55.55 0 00-.56.56l-1.07-.52-.56-.56v1.12a2 2 0 00-1.68.57c-.56 0-.56.56-1.12.56h-.56v.56a4.26 4.26 0 01-2.25-.56h.56l-.56-.56a.55.55 0 01-.56-.57h-.56v-.56l.56-.56-.56-.56-1.12.56-.56-.56h.56v-.56H641l-.56.56h-.56c-.56 0-.56 0-.56-.56h-.56l-.56-.56v.56h-1.13V28l.57-.56c-.57-.56-.57 0-1.13 0 0-.56 0-.56-.56-.56a.55.55 0 00-.56-.56l-.56.56v.56h-1.12v-.56l.56-.56-.56-.56-2.24 1.68h-.57l-.56-.56-.56.56-.56-.56h-1.12V28h-.56c0 .56-1.12.56-1.12 1.12h-.56v.56l-.56.56h.56v-.56a.55.55 0 00-.56.56 2 2 0 00-.56 1.13l-1.13.56v-.56h-1.11l-1.12 1.12v.56h-.56l-.56.56c0 .56-.56 0-.56.56-.56 0-.56 0-1.12.56h-2.81l-.56-.56h-.56L613 33.09v-1.68l-1.68.56v-1.13c-.56.57-1.13 0-2.25-1.12h-.56v.56h-.56v-.56h-.56v.56h-.56c0 .56 0 .56-.56.56l-.56-.56-.56.56.56.57h-.56V32h-.56l-.56-.56-.57.56h-.56l-.56-.56c-.56 0-.56 0-.56.56l-.56 1.12-.56-.56-.56.56h.56c0 .56 0 .56-.56.56v-.56h-.56v.56l-.56.56h-.56v-1.15l.56-.56c-.56-.56-.56-1.12-1.12-2.25l-.56.56h-1.69l-.56-.56.56-.56-.56-.56v-.56c-1.12 0-1.68.56-2.24.56a.55.55 0 01-.56-.56h-.56l-.56.56h-.56v-.56a2 2 0 01-.57 1.68c-.56 0-.56.56-1.12.56v-.56l-.56-.56-.56.56-.56.56v.57h-.56l-.56 1.12v.56l-.56.56H581c0 .56-.56.56-1.12.56l-.56-.56h-1.12v-.56c-.56 0-.56-.56-1.12-1.12h-.56v-.56h.56l.56-.57H576c0-.56-.57-.56-1.13-1.12h-.56l-.56-.56-1.12.56v1.69L572 32v-.56h-1.12V32h-.56l-.56-.56-.57-.57v-1.15h-.56a.55.55 0 00-.56.56l-.56.56h-1.12l-.56.57h-.56l-.56.56-1.68.56-.53-.53a.56.56 0 01-.57.56c-.56-.56 0-.56 0-1.12h.57v-.57h-1.69l.56.57h-1.12v-.57h-1.68v-.56H558l-1.12-1.68h-1.68V28h-2.8v-1.08h.6l-1.12-.56.56-.56-1.12-.56v.56h-.56c0-.56-.56-.56-1.12-1.12v-1.13a.55.55 0 00-.56.56h.56v.57H549l-.57.56h-.56l-.56-.56-.56.56h-2.24c-.56 0-.56 1.12-1.12 1.12h-2.25l-.56-.56a2 2 0 00-.56-1.12v-.57l-1.12.57h-2.8l-1.1-.57h-.56v.57h-1.13c-.56 0-.56 0-1.12.56a2 2 0 01-1.12.56l-.56.56c-.56.56-1.68 0-2.24 1.12V28l-.57.56a2 2 0 00-1.1-.56l.56-.56H526a1.2 1.2 0 01-1.12 1.12l-.56.56h-2.24l.56.56-1.12.56v-.56H521v-.56l-.56-.56h1.13l.56-.56-.56-.56h-5c0 .56-.56 0-.56.56h-2.24v.56c-.57.56-.57.56-1.13 0l.56-.56-.56-.56h-1.12l-.56 1.12h-.56c-.56.56-1.68 0-2.24 0 0 .56-1.12.56-1.12 1.12-.57 0-.57 0-1.13-.56a.55.55 0 01-.56-.56h-1.12c-.56 0-.56 0-1.12-.56a1.73 1.73 0 011.12-.56c-1.12-.56-1.68 0-2.8 0v-1.08h-1.13v.56h-.56l-.56.56c0 .56 0 1.12-.56 1.12V28h-1.12v2.8a.55.55 0 01-.56-.56h-.56v.56h-1.18v-2.2h-.56v.56h-.56v1.68h-.56v.57c0 .56 0 0-.57 0h-.56l-.56-.57.56-.56.56.56V32a2.06 2.06 0 01-1.68.56l-.56-.56-.56.56-1.68-.56-.56.56a3.41 3.41 0 01-2.25-.56h-2.8l-.56-.56h-1.68l-1.13.56H475l-1.12-1.13a2 2 0 01-1.12-.56h-1.13c-.56 0-1.12.56-1.68.56l-.56.57-.56-.57-3.36-1.12c-.57.56-1.69 0-2.25 0l-.56-.56h.56l-.56-.56H461V28c-.56 0-.56-.56-1.12-.56s-1.13.56-1.69 0l-.56-.56h-.56L455.94 28h-.56c-.56 0-.56-.56-1.12-.56l-.56-.56c-.56 0-1.12-.56-2.25-1.12l-.56-.56-.56.56-.56.56v.56h-1.12V25.8l-.56-.56-2.24 1.12h-1.69l-.56-.56-1.12.56h-1.12l-.56-.56h-.56l-.56.56H438s.57.56 0 .56L436.87 28c-.56-.56-1.12 0-1.68 0h.56l-1.12-1.12h-.56l-1.68-1.68c-.56 0-1.12-.56-1.69-.56v.56c0 .56-1.12.56-1.12.56v.56H429v-.52h-1.1v.56s-.56.56 0 .56L426.22 28a2.06 2.06 0 01-1.68-.56H424v-.56h.56l-.56-.56h-1.13v.56L421.73 28h1.12a.55.55 0 00.56.56.56.56 0 01.57.56v.56c.56 0 .56.56 1.12 0l-.56-.56 1.12.56.56-.56v.56l-1.12.56v.56l-.56.57c0-.57-.56 0-1.13 0l.59.63-.57.56-.56-.56v-.56h-1.12l-.56.56h-1.12l-.56-.56h-1.68l-.57-.57v-.56l-1.68.56-1.68-1.12 1.12-.56 2.81-.56c-.57 0-1.13 0-1.69-1.12H415l-1.12 1.12-.56 1.12h-1.12c-.56 0-.56.56-1.12.56h-.56l-.57.56c0 .57-1.12.57-1.12 1.13h-.56l-.56-.56h-1.12l-.56-.57c-.56 0-1.12.57-1.68.57V32l-.56.56V32h-1.13v-1.72h-4.48l1.12.56-1.12 1.16a2.08 2.08 0 01-.56-1.69h-2.25a.55.55 0 00-.56.56h-.56a.55.55 0 00-.56.57h.56V32l-.56-.56V32l-.56-1.13.56-.56a.55.55 0 00-.56-.56 2.06 2.06 0 00-1.68.56l-1.12 1.13-.56-.57h-1.13v-1.15h-.56v.56l-.56-.56-.56.56v-.56c0 .56-1.12.56-1.68 1.69v-.57h-.56l-.56-.56L383 32v-.56c-.56 0-.56 0-1.13.56-.56 0-.56-.56-1.12-.56s0 1.12-1.12 1.12l.56-.56c-.56-.56-.56-.56-1.12-.56V32l-1.12.56h-.56v.56c-.56 0-.56.56-1.12 0-.57 0-.57.56-.57 0v2.24h-1.12l-1.12-.56v-.56h-.56l-.56.56h-1.12l-.56.56h-1.12v.56H369l-.57-.56h-.56v-.56l-1.12-.56a.55.55 0 00-.56-.56v-.56h-.56l-.56.56H364l-.56-.56 1.12 1.68v-.56h-1.12l-.56.56v-1.15h-.56l-.56.56h-.57l-.56.56v-.56l-.56-.56-1.12.56h-1.15v.56h-2.24l-.57-.56c-.56 0-.56-.56-1.12-.56v.56l-.56-.56-.56 1.12c-.56 0-.56-.56-1.12 0l.56.56h-.56c-.56 0-.56-.56-.56-1.12l-.56-.56H350l-.56-.56a.55.55 0 00-.56-.56v1.12l-.56 1.12v.56l-.57.56v.56h-3.92a2.06 2.06 0 00-1.68.56h-1.69l-1.68 2.25c-.56 0-1.12.56-1.68.56a.55.55 0 01-.56.56l-.56-.56v.56h-.56v.56c-.57 0-.57.56-1.13.56 0 .56-.56.56-.56 1.12l-1.12-.56-.56.56c0-.56-.56 0-.56-.56l-.56-.56h-.56v-.56h-.56l.56-.56v.56h-1.17a.55.55 0 01-.56.56c-.56 0-.56.56-1.12.56l-.52-.56c0 .56-.56 1.12-.56 1.68h-.56l-.56.56-.56-.56-.56.56-1.68 1.13-.56-.57h-.56v-.56h-.56a.56.56 0 00-.57.56h-.56a.56.56 0 01-.56.57l-.56.56c-.56 0-1.12.56-1.68 0l-.56.56v.56h-1.12l-.56-.56v-.56h-.57V46h-.56v.56l-1.17-.56a.55.55 0 00-.56-.56.55.55 0 00-.56-.56c-.56 0-.56 0-.56-.57h-.56v-.56l-.56-1.12-1.12.56a.55.55 0 01-.56.56l-.56-.56v-.56l-.56-.56v-.57h-.57l-.56-.56s-.56.56-.56 0l-.56-.56v-.56l-.56-.56-.56-.56v.56c0 .56-.56 0-.56 0v.56h-.56a.55.55 0 00-.56-.56v.56h-.56v.56l-.56-.56-.56.56v-.56l-.57-.56-.56-.56c-.56 0-1.12.56-1.68.56v-.56c0-.56 0 0-.56 0v.56h-.56l-.56.56-1.12-.56v1.12h-.56c-.57 0-.57.56-1.13.56h-.56l-.56-1.68h-.56c0 .56-1.12.56-1.12 1.12h-1.12v.56a.55.55 0 01-.56-.56h.56v-.56h-.56a.55.55 0 01-.56-.56.55.55 0 01-.56-.56l-.56.56v1.12H286v-.56c0 .56 0 .56-.57 1.12v-1.12l-.56 1.12h-.56c-.56-.56-.56-1.12-1.12-1.68h-.56l-.56-.56V37H281l-.56-.56v-1.11c0-.56-.56 0-.56 0h.56l-.56-.56v-.56h-1.13c-.56.56-.56.56-1.12.56v-1.12H277c0 .56-.56 0-.56.56l-.56.56h-1.08v.56c-.56 0-.56 0-1.12-.56l-.56-.56h-.57l-.56-.56v.56l1.13.56-1.13.56v-.56h-.56c0-.56.56-.56.56-1.12v-2.24l-.56.56h.57v1.12l-1.12.56-1.68 1.68v-.56l-.56-.56v-.56c.56.56.56.56.56 0h2.24c-.56 0 0-.56-.56-.56v.56c0-.56-.56 0-.56 0a.78.78 0 01-1.12 0h-2.8a.55.55 0 01-.56-.56l-.56-.56h-.57l-.56-.56c0-.56-.56 0-.56-.56H263s-.56-.57-.56 0c-.56 0-.56 0-1.12-.57h-.56a2 2 0 01-1.68.57h-.56c0 .56 0 1.12-.57 1.12v1.12l-.56.56h-1.12v.56h-1.12v-.56h-1.68l-.56-.56h-1.11V32h-.56v1.68h-.56l.56-.56v-.56a.55.55 0 00-.56.56h-.56v-.56h-.56l-.56.56.56.56h-3.36v-.56h-.56a.55.55 0 01-.57-.56.55.55 0 00-.56-.56v-1.16H244c0-.56.56-.56 0-1.12l.56-1.12H244v.56h-1.12v-.56a2.06 2.06 0 00-1.68.56v-.56c.56 0 .56.56 1.12 0h.56V28c-.56 0-.56-.56-1.12-.56V28H240v-1.64l-.56-.56h-1.12l-.56 1.12a.56.56 0 00-.57-.56l-.56-.56H235l-.56.56h-1.14l-.56.56-.56-.56c-.56 0-.56.56-.56 1.12l-.57-.56c-.56 0-1.12-1.12-1.68-1.12l.56-.56h-1.12l.56 1.68-.56.56-.56-.56h.56V25.8h-.56v-.56h-1.12v-.56h-.56v-.57H226v.57h-1.69v.56l-1.12 1.12-.56-.56v-.56a.78.78 0 000 1.12h-.56c-.56 0-1.68-.56-2.24-.56l-.56.56h-.56c-.56 0-1.12 0-1.12.56H217l-.57.56h-.56l.56-.56c0-.56 0 0-.56 0a.78.78 0 00-1.12 0h-2.24l-.56-.56h-.56c-.56-.56.56-.56 0-.56l-.56-.56-.57.56-1.12-.56v-.56l-.56-.57-1.12-.56a.55.55 0 01-.56-.56h-1.68l-1.69 1.12.57.57H203v-.57h-1.12c-.56 0-.56.57-1.12.57v-.57l-.56.57v.56h.56v.56h-.56c-.56 0-.56-.56-1.12-.56v.56h-.56l-.56-.56h-1.12v.56l-.56-.56-1.69.56-.56-.56c-.56 0 0 0 0 .56l.56.56-1.12.56v-.56h-.56l-.56.56a3.37 3.37 0 00-2.24-.56l-.57-.56h-1.12a.55.55 0 00-.56.56h-.56a.55.55 0 00-.56.56v.56h-.56V28l-.56-.56h-.56v-.56l-.56.56v-.56a.55.55 0 01-.56.56v-.56h.56v-1.64h-.5l-.56 1.12-.57.56v-.56h-3.36a.55.55 0 01-.56.56l-.56.56-.56-.56-.61 1.08h-1.12v-.56c0 .56 0 .56-.56.56v-.56L175 28c-.56 0-.56-.56-.56-1.12h-.56v.56c0-.56-.56 0-.56 0l-.56-.56-1.15 1.12v.56c-.56.56-.56 0-1.12 0l-.56-.56h-.56v.56c-.57 0-.57.56-1.13.56v-.52h-1.12V28h-1.68l-.56 1.12v-.52h-1.68v.56l1.12.56h-1.12v.56l-1.13.56s-.56-.56-.56 0c-.56 0-.56.57-1.12.57-.56.56-1.12 0-1.68.56h-.56a.55.55 0 01-.56-.56v-1.13H157v-1.12c-.56 0-1.12-.56-1.68-.56h-.57c0-.56-.56-.56-1.12-.56v-.56h-.56l-1.68-.56v-.56c-.56 0 0-.56-.56-.56v.56l-.56-1.12h-.56v.56l-.56-.56h-.56l-1.13-.56-.56.56-1.12-2.81s.56-.56 0-.56l-.56.56h-1.68l-.56-.56h-.56l.56-.56h-.56v-1.12l-.56.56h-.57l-.56-.56h-1.12c-.56 0-1.12.56-1.68 0-.56.56-1.12 0-1.12.56h.56l-.56.56v-.56h-1.12a.55.55 0 01-.56-.56l-.56-.56h-1.13v-1.12l-.56.56c-.56-.56-.56 0-1.12 0h-1.12l-.56.56v.56h-.56v.56c-.56 0-.56 0-.56.56h-.56v.56l-.57.56v-.56c-.55 0-1.12.56-1.68.56v-1.12h-.56c0-.56.56 0 .56-.56a2.06 2.06 0 01-1.68-.56h-1.12c0-.56 0-.56.56-1.12-.56-.56-1.12-1.68-2.24-2.25h-1.13V15.7c-.56.56-1.12.56-2.24.56v-.56h-.56v.56h-.56v-.56h-.56l-.56.56h-.56v.56h-1.68l.56-.56v-.56l.56-.56-.56-.56c-.56.56-.56.56-.56 1.12l-1.69.56-.56-.56-.56.56v-.56h-.56l-.56-.56v-.56l-.56-.56-1.12.56h.56l-.56.56-.56-.56-.57.56H106c0 .56 0 .56-.56 1.12l-.56.56v.57h-1.12c0 .56 0 .56-.56.56a.55.55 0 00.56.56h-.56l-.56-.56-.56-.56h-.56L101 18l.56.56-.56.56h-.56v.56h.56a.55.55 0 01-.56.56v-.56h-1.18l-.56.56-1.12-.56v-.56H97v.56c0-.56 0-.56-.56-.56v-.56h-.54V18c-.56-.56-.56 0-.56 0l-.56-.56h-.56V18l1.12 1.68-.56-.56h.56v-.56l.56-.56-1.12-.56-.56-.57.56-1.12-.56.56H93.1s-.57-.56-.57 0v-.61l-.53-.56-.56.56-.56-.56v-.56l-1.12.56-.56-.56h.56L88.05 14v-.56l-1.68-.56a.56.56 0 01-.57.56.55.55 0 00-.56.56l-.56-.56-.56.56v-.56l.56-.56v-.56l.56-.56v-.56a2.08 2.08 0 001.69-.56V9l-1.69 1.12h-1.68c-.56.57-1.12.57-1.68 1.13h-.56v-.56h-.56v.56h-.56v.56h-1.13v-.56l-.56-.56c0 .56-.56 0-.56 0h-1.12l-.56-.57v1.13c-.56 0 0-.56 0-.56l-.56-.57v1.13h.56l-.56-.56a.55.55 0 00-.56.56 2 2 0 00-.56 1.12v-1.15h-1.12v-.56h-.56v-.57h-1.13v.57h1.13V9.53l-.57-1.12-.56.59c-.56.56-1.12-.56-1.12-.56h-.56l.56-.56h-1.12c0 .56 0 .56-.56.56V9h-.56v2.25-1.72h-.56l.56-.53h-.56l-.56-1.15h-.56v.56h-.56V9h-.56v.56h-.57c0-.56 0 0-.56-.56l.56-1.12h.57l-.57-.56h-.56l.56-.56h-1.12l-.56-1.12v.56h-.56l-.56.56h-.56v.56h-.56v.56h-.56L60 7.29v.56c-.56.56-.56-.56-1.12-.56a.55.55 0 01.56-.56l.56-.56v-.56a.55.55 0 01-.56-.56 2.06 2.06 0 001.68-.56h1.12v-.56c0-.57.56-.57.56-1.13h-.56l-1.12.56h-2.23l.56-.56h-1.13l-.56-.56v.56l-1.68.56V2.8H54.4a.55.55 0 01-.56-.56h-.56c-.56 0-.56 0-.56-.56a.55.55 0 01-.56.56l-.57.56v-.56c-.56 0-.56.56-1.12 0H51V1.12h-5l-.56 1.12h-.56l-.57.56v.56h-.56v.57h-.56l-.56.56-.56.56v-.56a.55.55 0 00-.56.56v.56c0 .56-.56 0-.56 0-.56 0-.56-.56 0-1.12l.56.56h.56c0-1.12-.56-1.69-1.12-1.69l-1.13-1.12-1.68.56h-.57v-.56c-.56 0-.56.56-1.12.56l-1.12 1.69a.55.55 0 01-.56-.56v-.57h-1.12v.57l-.56-.57c-.56 0-.56-.56-1.12 0l-.56-.56v.56l-.57.57h-1.68L28 3.36a.55.55 0 00-.56-.56l-.56-.56H25.8c0 .56-.56 0-1.12.56l.56.56v.57h-1.69L23 2.8h.56L23 1.68a.55.55 0 01-.56.56.55.55 0 00-.56.56v.56l-.56.57-.57-1.13-.56.56h-1.12V2.8H18v-.56h-2.86l-.56.56H12.9v-.56l-.56.56-1.12-.56H9.53l.56-.56h-.56a.55.55 0 01-.53.56l-.56-.56H7.29c-.56-.56 0-.56 0-.56 0-.56-.56-.56-1.12-.56l-.56.56h-.56V.56A.55.55 0 005.61 0L4.49.56v.56l-1.13.56v.56H0V55h1600V1.68z" fill="#1468b3"/></svg>
