<?xml version="1.0" encoding="utf-8"?>
<!-- Generator: Adobe Illustrator 25.3.1, SVG Export Plug-In . SVG Version: 6.00 Build 0)  -->
<svg version="1.1" id="Layer_1" xmlns="http://www.w3.org/2000/svg" xmlns:xlink="http://www.w3.org/1999/xlink" x="0px" y="0px"
	 viewBox="0 0 581.2 341.2" style="enable-background:new 0 0 581.2 341.2;" xml:space="preserve">
<style type="text/css">
	.st0{fill:#010101;}
	.st1{fill:#FFF4F2;}
	.st2{fill:#DFEBF8;}
	.st3{fill:#61C3AB;}
	.st4{opacity:0.5;}
	.st5{clip-path:url(#SVGID_2_);}
	.st6{fill:#FFFFFF;}
	.st7{opacity:0.6;}
	.st8{fill:#17689A;}
</style>
<g id="Layer_2_1_" transform="translate(0 0.037)">
	<g id="Layer_1_1_" transform="translate(0 -0.037)">
		<path id="Path_4955" class="st0" d="M400.9,179.8c-0.4,1.7-1.9,2.8-3.6,2.8c-0.3,0-0.6,0-0.9-0.1l-46.8-11.4l-3.1-0.7
			c-0.2-0.1-0.4-0.1-0.6-0.2c-1.9-0.8-2.7-3-1.9-4.9c0.6-1.3,1.8-2.2,3.2-2.2h0.2c0.3,0,0.6,0,0.9,0.1l3.3,0.8l46.5,11.3
			C400.1,175.9,401.3,177.8,400.9,179.8L400.9,179.8z"/>
		<path id="Path_4956" class="st0" d="M397.3,183.7c-0.4,0-0.8,0-1.1-0.2l-49.8-12.1c-0.3-0.1-0.5-0.1-0.7-0.2
			c-2.4-1-3.6-3.7-2.6-6.1c0.7-1.7,2.3-2.8,4.1-2.9c0.1,0,0.2,0,0.3,0c0.4,0,0.8,0,1.2,0.2l49.8,12.1c2.5,0.7,4,3.2,3.4,5.7l0,0
			C401.3,182.2,399.4,183.7,397.3,183.7L397.3,183.7z M347.4,164.1c-1.2,0-2.3,0.9-2.6,2.1c-0.3,1.3,0.3,2.6,1.5,3.1
			c0.1,0.1,0.3,0.1,0.4,0.2l49.9,12.1c1.4,0.3,2.9-0.5,3.2-2l0,0c0.2-0.7,0.1-1.4-0.3-2c-0.4-0.6-1-1.1-1.7-1.2L348,164.2
			C347.8,164.2,347.6,164.1,347.4,164.1z"/>
		<path id="Path_4957" class="st0" d="M396.4,182.5l-49.1-1.2c-2.5-1.7-8.2-3.3-10.7-5.1c-1.9-1.4-5.5-2.4-7.3-3.6l18-0.8
			c0.8,0,1.6-0.2,2.3-0.6L396.4,182.5z"/>
		<path id="Path_4958" class="st0" d="M396.4,183.6L396.4,183.6l-49.1-1.2c-0.2,0-0.4-0.1-0.6-0.2c-1.6-0.9-3.2-1.7-4.9-2.3
			c-2-0.7-4-1.7-5.8-2.8c-1.2-0.7-2.4-1.4-3.7-1.9c-1.2-0.4-2.4-1-3.6-1.7c-0.4-0.3-0.5-0.7-0.4-1.1c0.1-0.4,0.5-0.7,0.9-0.7l18-0.8
			c0.7,0,1.3-0.2,1.9-0.5c0.2-0.1,0.5-0.2,0.7-0.1l46.8,11.4c0.5,0.1,0.9,0.7,0.7,1.2C397.3,183.3,396.9,183.6,396.4,183.6
			L396.4,183.6z M347.7,180.3l39.2,1l-37.2-9.1c-0.8,0.4-1.6,0.5-2.4,0.5l-13.9,0.6c1.3,0.5,2.6,1.2,3.8,2c1.7,1,3.5,1.9,5.4,2.6
			C344.3,178.6,346,179.4,347.7,180.3L347.7,180.3z"/>
		<path id="Path_4959" class="st1" d="M349.6,171.2c-0.7,0.4-1.5,0.6-2.3,0.6l-4.3,0.1l-34.3,0.7c-2.2,0-4.2-1.4-4.9-3.5l-5.1-16.8
			l-13.1-42.9c-0.8-2.5,0.6-5.3,3.1-6.1l37.5-13.4c2.6-0.9,5.4,0.4,6.4,3c0,0.1,0.1,0.3,0.1,0.4l18.9,70.8l0.4,1.5
			C352.6,167.7,351.6,170.1,349.6,171.2z"/>
		<path id="Path_4960" class="st0" d="M308.6,173.6c-2.6,0-5-1.7-5.7-4.2l-18.3-59.7c-1-3.1,0.7-6.3,3.7-7.4l37.5-13.4
			c3.1-1.1,6.6,0.5,7.7,3.7c0.1,0.1,0.1,0.3,0.1,0.4l19.3,72.3c0.9,3.2-1,6.5-4.2,7.3c-0.5,0.1-1,0.2-1.5,0.2L308.6,173.6
			L308.6,173.6z M327.9,90.5c-0.5,0-0.9,0.1-1.3,0.2L289,104.2c-2,0.7-3.1,2.9-2.5,4.9l18.3,59.7c0.5,1.7,2.1,2.8,3.8,2.8l38.6-0.8
			c0.6,0,1.3-0.2,1.8-0.5l0,0c1.6-0.9,2.4-2.7,1.9-4.5l-0.4-1.5l-18.9-70.8c-0.3-1.1-1-2-1.9-2.5C329.2,90.7,328.5,90.5,327.9,90.5
			L327.9,90.5z"/>
		<path id="Path_4961" class="st2" d="M290.4,106.7l34-12.6c2.3-0.8,4.9,0.4,5.7,2.7c0.1,0.2,0.1,0.3,0.1,0.5l17.5,67.9
			c0.7,2.5-0.8,5-3.2,5.7c-0.3,0.1-0.7,0.1-1,0.2l-34.9,0.8c-2.1,0-3.9-1.4-4.4-3.3l-16.5-56C286.9,110.1,288.2,107.6,290.4,106.7
			L290.4,106.7z"/>
		<path id="Path_4962" class="st0" d="M316.3,139.6c-2,0-4.1-2.3-5.1-5.7c-0.7-2-0.6-4.2,0.2-6.2c0.3-0.5,0.9-0.7,1.4-0.4
			c0.5,0.3,0.7,0.9,0.4,1.4c0,0,0,0,0,0c-0.5,1.5-0.5,3.1,0,4.7c0.8,2.9,2.5,4.4,3.3,4.2c0.4-0.2,0.7-0.6,0.7-1
			c0.2-0.5,0.8-0.8,1.3-0.6c0.5,0.2,0.8,0.7,0.6,1.2c-0.3,1.1-1.1,2-2.1,2.3C316.8,139.5,316.5,139.6,316.3,139.6z"/>
		<path id="Path_4963" class="st3" d="M455.9,228.7c-6.4,3.6-13.2,7.2-20.8,10.9c-65.1,31.6-128.4,0.4-128.4,0.4s-5.9,14.9-44.3,38
			c-1.5,3.8-2.7,7.6-3.6,11.5c-4.4-1.4-9-2.1-13.6-1.9l0,0c-9.4,5-20.3,10.2-32.7,15.8l-1.3,0.6c-1.3-11.6-14.1-21.3-14.1-21.3
			l1.7-1.4c5.1-4.2,23.2-19.9,41.4-36.2l0,0c0.5-1.3,21.6-55.7,25.5-64.6c4.7-10.6,11.1-16,21.8-18.2c3-0.6,6-0.6,9,0l0.6,0.1
			c6,1.1,13.3,3.9,23.2,8.2l1.8,0.8c1.9,0.8,3.9,1.7,6,2.6l3,1.4c2.1,1.2,4.3,2.2,6.6,3c1.3,0.6,2.7,1.3,4.2,2l0,0
			c16.7,8.2,37.4,19,37.4,19c9.8-6.8,11-6.3,11-6.3l1.6,0.4c7.8,1.9,42.3,11.5,63.9,34.6L455.9,228.7z"/>
		<path id="Path_4964" class="st3" d="M211.2,305c-0.2,0-0.3,0-0.5-0.1c-0.3-0.2-0.5-0.4-0.5-0.8c-1.3-11-13.6-20.6-13.6-20.7
			c-0.2-0.2-0.4-0.5-0.4-0.8c0-0.3,0.1-0.6,0.4-0.8l1.5-1.3l0.2-0.1c5.1-4.1,22.3-19.2,41.1-36l0.9-2.3c17.4-44.9,23-58.6,24.6-62.2
			c4.8-10.9,11.5-16.5,22.6-18.8c3.1-0.6,6.3-0.6,9.4,0h0.6c6.2,1.1,13.8,4.1,23.4,8.3l0.8,0.4l1,0.4c1.9,0.8,3.9,1.7,6,2.6l3,1.4
			l0.2,0.1c1.7,1,3.4,1.9,5.3,2.6l1.1,0.4c1.4,0.7,2.8,1.3,4.2,2.1h0.1c15,7.3,33.4,16.9,36.8,18.8c9.8-6.7,11-6.2,11.4-6.1l1.4,0.3
			c9.7,2.4,43,12,64.4,34.9l0.4,0.5c0.2,0.2,0.3,0.5,0.2,0.8c0,0.3-0.2,0.6-0.5,0.7c-6.8,3.8-13.6,7.4-20.9,10.9
			c-60.5,29.4-120.2,4.5-128.4,0.9c-2,3.7-11,17.4-44,37.3c-1.4,3.6-2.5,7.3-3.4,11c-0.1,0.3-0.3,0.5-0.5,0.7
			c-0.3,0.1-0.6,0.1-0.9,0c-4.2-1.4-8.6-2-13-1.8c-9.7,5.1-20.7,10.5-32.6,15.7l-1.3,0.6C211.5,304.9,211.4,305,211.2,305z
			 M198.7,282.6c3,2.5,11.5,10.4,13.3,19.9l0,0c11.9-5.3,22.9-10.6,32.7-15.7c0.1-0.1,0.3-0.1,0.5-0.1c4.3-0.2,8.7,0.3,12.9,1.5
			c0.9-3.6,2.1-7.1,3.4-10.5c0.1-0.2,0.2-0.4,0.4-0.5c37.6-22.6,43.9-37.4,44-37.5c0.1-0.3,0.3-0.5,0.6-0.6c0.3-0.1,0.6-0.1,0.8,0
			c0.6,0.3,63.7,30.6,127.5-0.4c6.8-3.4,13.2-6.7,19.6-10.2c-21.5-22.7-56.1-32.2-62.9-33.9l-1.4-0.3c-0.4,0-2.6,0.8-10.2,6.1
			c-0.3,0.2-0.7,0.2-1.1,0c-0.2-0.1-20.9-10.9-37.4-19h-0.1c-1.4-0.7-2.8-1.3-4.1-2l-1-0.4c-2-0.7-3.9-1.6-5.6-2.7
			c-1-0.5-2-0.9-2.9-1.3c-2.1-0.9-4.1-1.8-6-2.6l-1-0.4l-0.9-0.4c-9.4-4.1-16.9-7-22.9-8.1l-0.6-0.1c-2.9-0.6-5.8-0.6-8.6,0
			c-10.5,2.2-16.6,7.3-21.1,17.6c-1.6,3.6-7.1,17.3-24.5,62.1l-0.9,2.4c0,0.2-0.2,0.3-0.3,0.5c-18.9,16.9-36.3,32.2-41.4,36.2
			l-0.2,0.1L198.7,282.6z"/>
		<g id="Group_314" transform="translate(190.331 149.684)" class="st4">
			<g>
				<defs>
					<path id="SVGID_1_" d="M266.4,78.3l-0.4-0.5c-21.3-22.9-54.6-32.5-64.3-34.9l-1.4-0.3c-0.4-0.2-1.6-0.6-11.4,6.1
						c-3.3-1.7-21.8-11.4-36.8-18.8h-0.1c-1.4-0.7-2.8-1.4-4.2-2l-1-0.4c-1.9-0.7-3.6-1.5-5.3-2.6l-0.2-0.1l-3-1.3
						c-2.1-0.9-4.1-1.8-6-2.6l-1-0.4l-0.8-0.4c-9.6-4.1-17.2-7.1-23.4-8.3h-0.6c-3.1-0.6-6.3-0.6-9.4,0c-11,2.3-17.7,7.9-22.5,18.8
						c-2.3,5.2-10.5,26-24.4,61.9c-0.5,1.3-0.9,2.2-1,2.6c-18.5,16.5-36.2,32-41.1,36l-1.7,1.4c-0.2,0.2-0.3,0.5-0.3,0.8
						c0,0.3,0.1,0.6,0.4,0.7c0.1,0,12.4,9.6,13.7,20.7c0.1,0.5,0.5,0.8,0.9,0.8c0.1,0,0.3,0,0.4-0.1l1.3-0.6
						c11.9-5.3,22.9-10.5,32.6-15.7c4.4-0.2,8.8,0.3,13,1.7c0.3,0.1,0.5,0.1,0.8,0c0.2-0.1,0.4-0.3,0.5-0.6c0.9-3.8,2-7.5,3.4-11.1
						c33.3-20,42.2-33.8,44.1-37.4c7.9,3.5,67.7,28.6,128.4-0.8c7.2-3.5,14-7.1,20.8-10.9c0.3-0.1,0.4-0.4,0.5-0.6
						C266.6,78.9,266.6,78.6,266.4,78.3z"/>
				</defs>
				<clipPath id="SVGID_2_">
					<use xlink:href="#SVGID_1_"  style="overflow:visible;"/>
				</clipPath>
				<g id="Group_313" class="st5">
					
						<rect id="Rectangle_184" x="44.1" y="-5.3" transform="matrix(0.7071 -0.7071 0.7071 0.7071 14.8132 31.1213)" class="st6" width="1.7" height="5.9"/>
					
						<rect id="Rectangle_185" x="50.4" y="6.7" transform="matrix(0.7071 -0.7071 0.7071 0.7071 10.3277 39.9531)" class="st6" width="5.9" height="1.7"/>
					<rect id="Rectangle_186" x="44.1" y="48.3" class="st6" width="1.7" height="5.9"/>
					<circle id="Ellipse_35" class="st6" cx="45" cy="37" r="1.9"/>
					<circle id="Ellipse_36" class="st6" cx="46.9" cy="21.4" r="1.9"/>
					<circle id="Ellipse_37" class="st6" cx="45.8" cy="60.2" r="1.9"/>
					<rect id="Rectangle_187" x="90.2" y="57.7" class="st6" width="1.7" height="5.9"/>
					<rect id="Rectangle_188" x="79.9" y="40" class="st6" width="5.9" height="1.7"/>
					<rect id="Rectangle_189" x="63.1" y="71" class="st6" width="5.9" height="1.7"/>
					<rect id="Rectangle_190" x="124.1" y="84.9" class="st6" width="5.9" height="1.7"/>
					
						<rect id="Rectangle_191" x="92.6" y="76" transform="matrix(0.7071 -0.7071 0.7071 0.7071 -26.3455 90.0942)" class="st6" width="5.9" height="1.7"/>
					
						<rect id="Rectangle_192" x="71.8" y="82.2" transform="matrix(0.7071 -0.7071 0.7071 0.7071 -36.868 77.1726)" class="st6" width="5.9" height="1.7"/>
					
						<rect id="Rectangle_193" x="106.3" y="42.7" transform="matrix(0.7071 -0.7071 0.7071 0.7071 1.2108 89.9789)" class="st6" width="5.9" height="1.7"/>
					
						<rect id="Rectangle_194" x="119.3" y="26.8" transform="matrix(0.7071 -0.7071 0.7071 0.7071 14.172 93.6813)" class="st6" width="1.7" height="5.9"/>
					
						<rect id="Rectangle_195" x="139.8" y="18.4" transform="matrix(0.7071 -0.7071 0.7071 0.7071 26.1247 105.6857)" class="st6" width="1.7" height="5.9"/>
					
						<rect id="Rectangle_196" x="91.8" y="13.2" transform="matrix(0.7071 -0.7071 0.7071 0.7071 15.7519 70.2294)" class="st6" width="1.7" height="5.9"/>
					
						<rect id="Rectangle_197" x="58.2" y="35.5" transform="matrix(0.7071 -0.7071 0.7071 0.7071 -9.8996 53.0592)" class="st6" width="1.7" height="5.9"/>
					
						<rect id="Rectangle_198" x="133.8" y="9.2" transform="matrix(0.7071 -0.7071 0.7071 0.7071 32.9352 99.6224)" class="st6" width="5.9" height="1.7"/>
					
						<rect id="Rectangle_199" x="146.1" y="30.3" transform="matrix(0.7071 -0.7071 0.7071 0.7071 21.6317 114.5273)" class="st6" width="5.9" height="1.7"/>
					<rect id="Rectangle_200" x="111.1" y="79" class="st6" width="1.7" height="5.9"/>
					<rect id="Rectangle_201" x="121.2" y="56.6" class="st6" width="1.7" height="5.9"/>
					<rect id="Rectangle_202" x="134" y="32.8" class="st6" width="1.7" height="5.9"/>
					<rect id="Rectangle_203" x="102.3" y="23.2" class="st6" width="1.7" height="5.9"/>
					<rect id="Rectangle_204" x="110.3" y="5.5" class="st6" width="1.7" height="5.9"/>
					<rect id="Rectangle_205" x="64.3" y="9.3" class="st6" width="1.7" height="5.9"/>
					<rect id="Rectangle_206" x="69" y="43.1" class="st6" width="1.7" height="5.9"/>
					<rect id="Rectangle_207" x="81.6" y="93.9" class="st6" width="1.7" height="5.9"/>
					<rect id="Rectangle_208" x="139.8" y="72" class="st6" width="1.7" height="5.9"/>
					<circle id="Ellipse_38" class="st6" cx="101.1" cy="56.6" r="1.9"/>
					<circle id="Ellipse_39" class="st6" cx="111.1" cy="65.4" r="1.9"/>
					<circle id="Ellipse_40" class="st6" cx="122.1" cy="47" r="1.9"/>
					<circle id="Ellipse_41" class="st6" cx="129" cy="73.8" r="1.9"/>
					<circle id="Ellipse_42" class="st6" cx="140.7" cy="60.6" r="1.9"/>
					<circle id="Ellipse_43" class="st6" cx="84.3" cy="74.9" r="1.9"/>
					<circle id="Ellipse_44" class="st6" cx="74.7" cy="60.6" r="1.9"/>
					<circle id="Ellipse_45" class="st6" cx="57.2" cy="52.8" r="1.9"/>
					<circle id="Ellipse_46" class="st6" cx="62.4" cy="86.7" r="1.9"/>
					<circle id="Ellipse_47" class="st6" cx="91.9" cy="31.9" r="1.9"/>
					<circle id="Ellipse_48" class="st6" cx="73.6" cy="25.1" r="1.9"/>
					<circle id="Ellipse_49" class="st6" cx="81" cy="7.4" r="1.9"/>
					<circle id="Ellipse_50" class="st6" cx="114.9" cy="21.3" r="1.9"/>
					<circle id="Ellipse_51" class="st6" cx="102.3" cy="89.7" r="1.9"/>
					<circle id="Ellipse_52" class="st6" cx="125.9" cy="14.2" r="1.9"/>
					<circle id="Ellipse_53" class="st6" cx="101.8" cy="0.8" r="1.9"/>
					<circle id="Ellipse_54" class="st6" cx="142.6" cy="45.1" r="1.9"/>
					<circle id="Ellipse_55" class="st6" cx="141.5" cy="83.9" r="1.9"/>
					<rect id="Rectangle_209" x="23.6" y="163.4" class="st6" width="5.9" height="1.7"/>
					
						<rect id="Rectangle_210" x="-8" y="154.4" transform="matrix(0.7071 -0.7071 0.7071 0.7071 -111.2602 41.938)" class="st6" width="5.9" height="1.7"/>
					
						<rect id="Rectangle_211" x="5.7" y="121.1" transform="matrix(0.7071 -0.7071 0.7071 0.7071 -83.7039 41.8327)" class="st6" width="5.9" height="1.7"/>
					
						<rect id="Rectangle_212" x="18.7" y="105.2" transform="matrix(0.7071 -0.7071 0.7071 0.7071 -70.731 45.5352)" class="st6" width="1.7" height="5.9"/>
					
						<rect id="Rectangle_213" x="39.2" y="96.8" transform="matrix(0.7071 -0.7071 0.7071 0.7071 -58.7793 57.5632)" class="st6" width="1.7" height="5.9"/>
					
						<rect id="Rectangle_214" x="33.2" y="87.6" transform="matrix(0.7071 -0.7071 0.7071 0.7071 -51.9915 51.4712)" class="st6" width="5.9" height="1.7"/>
					
						<rect id="Rectangle_215" x="45.5" y="108.7" transform="matrix(0.7071 -0.7071 0.7071 0.7071 -63.283 66.3811)" class="st6" width="5.9" height="1.7"/>
					<rect id="Rectangle_216" x="10.6" y="157.5" class="st6" width="1.7" height="5.9"/>
					<rect id="Rectangle_217" x="20.7" y="135.1" class="st6" width="1.7" height="5.9"/>
					<rect id="Rectangle_218" x="33.5" y="111.3" class="st6" width="1.7" height="5.9"/>
					<rect id="Rectangle_219" x="53.1" y="90.7" class="st6" width="1.7" height="5.9"/>
					<rect id="Rectangle_220" x="1.7" y="101.6" class="st6" width="1.7" height="5.9"/>
					<rect id="Rectangle_221" x="9.7" y="83.9" class="st6" width="1.7" height="5.9"/>
					<rect id="Rectangle_222" x="44.9" y="149.3" class="st6" width="1.7" height="5.9"/>
					<circle id="Ellipse_56" class="st6" cx="0.5" cy="135.1" r="1.9"/>
					<circle id="Ellipse_57" class="st6" cx="10.6" cy="143.9" r="1.9"/>
					<circle id="Ellipse_58" class="st6" cx="21.5" cy="125.4" r="1.9"/>
					<circle id="Ellipse_59" class="st6" cx="28.4" cy="152.2" r="1.9"/>
					<circle id="Ellipse_60" class="st6" cx="40.1" cy="139" r="1.9"/>
					<circle id="Ellipse_61" class="st6" cx="14.4" cy="99.7" r="1.9"/>
					<circle id="Ellipse_62" class="st6" cx="49.6" cy="76.2" r="1.9"/>
					<circle id="Ellipse_63" class="st6" cx="1.7" cy="168.1" r="1.9"/>
					<circle id="Ellipse_64" class="st6" cx="25.3" cy="92.6" r="1.9"/>
					<circle id="Ellipse_65" class="st6" cx="42" cy="123.5" r="1.9"/>
					<circle id="Ellipse_66" class="st6" cx="40.9" cy="162.3" r="1.9"/>
					<rect id="Rectangle_223" x="89.4" y="108.7" class="st6" width="5.9" height="1.7"/>
					<rect id="Rectangle_224" x="67.4" y="137.8" class="st6" width="5.9" height="1.7"/>
					
						<rect id="Rectangle_225" x="76.1" y="149.1" transform="matrix(0.7071 -0.7071 0.7071 0.7071 -82.8457 99.8084)" class="st6" width="5.9" height="1.7"/>
					
						<rect id="Rectangle_226" x="51.8" y="135.2" transform="matrix(0.7071 -0.7071 0.7071 0.7071 -80.177 78.5854)" class="st6" width="5.9" height="1.7"/>
					
						<rect id="Rectangle_227" x="110.6" y="109.5" transform="matrix(0.7071 -0.7071 0.7071 0.7071 -44.7727 112.603)" class="st6" width="5.9" height="1.7"/>
					
						<rect id="Rectangle_228" x="62.6" y="102.4" transform="matrix(0.7071 -0.7071 0.7071 0.7071 -55.887 75.68)" class="st6" width="1.7" height="5.9"/>
					<rect id="Rectangle_229" x="125.5" y="123.5" class="st6" width="1.7" height="5.9"/>
					<rect id="Rectangle_230" x="138.3" y="99.7" class="st6" width="1.7" height="5.9"/>
					<rect id="Rectangle_231" x="73.4" y="110" class="st6" width="1.7" height="5.9"/>
					<rect id="Rectangle_232" x="85.9" y="160.8" class="st6" width="1.7" height="5.9"/>
					<circle id="Ellipse_67" class="st6" cx="105.4" cy="123.5" r="1.9"/>
					<circle id="Ellipse_68" class="st6" cx="126.4" cy="113.8" r="1.9"/>
					<circle id="Ellipse_69" class="st6" cx="122.6" cy="96.6" r="1.9"/>
					<circle id="Ellipse_70" class="st6" cx="145" cy="127.4" r="1.9"/>
					<circle id="Ellipse_71" class="st6" cx="88.6" cy="141.7" r="1.9"/>
					<circle id="Ellipse_72" class="st6" cx="79" cy="127.4" r="1.9"/>
					<circle id="Ellipse_73" class="st6" cx="61.5" cy="119.6" r="1.9"/>
					<circle id="Ellipse_74" class="st6" cx="61.5" cy="152.6" r="1.9"/>
					<circle id="Ellipse_75" class="st6" cx="146.9" cy="111.9" r="1.9"/>
					<rect id="Rectangle_233" x="185.5" y="14.9" class="st6" width="1.7" height="5.9"/>
					<rect id="Rectangle_234" x="175.3" y="-2.8" class="st6" width="5.9" height="1.7"/>
					<rect id="Rectangle_235" x="158.5" y="28.2" class="st6" width="5.9" height="1.7"/>
					<rect id="Rectangle_236" x="219.5" y="42.2" class="st6" width="5.9" height="1.7"/>
					
						<rect id="Rectangle_237" x="188" y="33.2" transform="matrix(0.7071 -0.7071 0.7071 0.7071 31.8411 144.9971)" class="st6" width="5.9" height="1.7"/>
					
						<rect id="Rectangle_238" x="167.1" y="39.5" transform="matrix(0.7071 -0.7071 0.7071 0.7071 21.307 132.0795)" class="st6" width="5.9" height="1.7"/>
					
						<rect id="Rectangle_239" x="201.6" y="-0.1" transform="matrix(0.7071 -0.7071 0.7071 0.7071 59.3971 144.8911)" class="st6" width="5.9" height="1.7"/>
					<rect id="Rectangle_240" x="206.5" y="36.2" class="st6" width="1.7" height="5.9"/>
					<rect id="Rectangle_241" x="216.6" y="13.9" class="st6" width="1.7" height="5.9"/>
					<rect id="Rectangle_242" x="164.4" y="0.4" class="st6" width="1.7" height="5.9"/>
					<rect id="Rectangle_243" x="176.9" y="51.2" class="st6" width="1.7" height="5.9"/>
					<rect id="Rectangle_244" x="235.2" y="29.2" class="st6" width="1.7" height="5.9"/>
					<circle id="Ellipse_76" class="st6" cx="196.5" cy="13.9" r="1.9"/>
					<circle id="Ellipse_77" class="st6" cx="206.5" cy="22.7" r="1.9"/>
					<circle id="Ellipse_78" class="st6" cx="217.4" cy="4.2" r="1.9"/>
					<circle id="Ellipse_79" class="st6" cx="224.4" cy="31" r="1.9"/>
					<circle id="Ellipse_80" class="st6" cx="236" cy="17.8" r="1.9"/>
					<circle id="Ellipse_81" class="st6" cx="179.7" cy="32.2" r="1.9"/>
					<circle id="Ellipse_82" class="st6" cx="170.1" cy="17.8" r="1.9"/>
					<circle id="Ellipse_83" class="st6" cx="152.6" cy="10.1" r="1.9"/>
					<circle id="Ellipse_84" class="st6" cx="157.8" cy="43.9" r="1.9"/>
					<circle id="Ellipse_85" class="st6" cx="197.7" cy="46.9" r="1.9"/>
					<circle id="Ellipse_86" class="st6" cx="237.9" cy="2.3" r="1.9"/>
					<circle id="Ellipse_87" class="st6" cx="236.8" cy="41.1" r="1.9"/>
					<rect id="Rectangle_245" x="254.1" y="51.9" class="st6" width="5.9" height="1.7"/>
					
						<rect id="Rectangle_246" x="262.8" y="63.1" transform="matrix(0.7071 -0.7071 0.7071 0.7071 32.6106 206.6547)" class="st6" width="5.9" height="1.7"/>
					
						<rect id="Rectangle_247" x="249.3" y="16.4" transform="matrix(0.7071 -0.7071 0.7071 0.7071 59.5735 182.5402)" class="st6" width="1.7" height="5.9"/>
					<rect id="Rectangle_248" x="260.1" y="24" class="st6" width="1.7" height="5.9"/>
					<circle id="Ellipse_88" class="st6" cx="265.8" cy="41.5" r="1.9"/>
					<circle id="Ellipse_89" class="st6" cx="248.2" cy="33.7" r="1.9"/>
					<circle id="Ellipse_90" class="st6" cx="253.5" cy="67.5" r="1.9"/>
					<circle id="Ellipse_91" class="st6" cx="264.6" cy="6" r="1.9"/>
					<rect id="Rectangle_249" x="180.6" y="117" class="st6" width="1.7" height="5.9"/>
					<rect id="Rectangle_250" x="170.4" y="99.3" class="st6" width="5.9" height="1.7"/>
					
						<rect id="Rectangle_251" x="196.7" y="102" transform="matrix(0.7071 -0.7071 0.7071 0.7071 -14.231 171.3271)" class="st6" width="5.9" height="1.7"/>
					
						<rect id="Rectangle_252" x="209.8" y="86.1" transform="matrix(0.7071 -0.7071 0.7071 0.7071 -1.2461 175.0105)" class="st6" width="1.7" height="5.9"/>
					
						<rect id="Rectangle_253" x="215.5" y="54.8" transform="matrix(0.7071 -0.7071 0.7071 0.7071 22.5677 169.8983)" class="st6" width="1.7" height="5.9"/>
					
						<rect id="Rectangle_254" x="230.3" y="77.7" transform="matrix(0.7071 -0.7071 0.7071 0.7071 10.6939 187.0443)" class="st6" width="1.7" height="5.9"/>
					
						<rect id="Rectangle_255" x="182.3" y="72.4" transform="matrix(0.7071 -0.7071 0.7071 0.7071 0.3387 151.5707)" class="st6" width="1.7" height="5.9"/>
					
						<rect id="Rectangle_256" x="148.7" y="94.8" transform="matrix(0.7071 -0.7071 0.7071 0.7071 -25.3425 134.3887)" class="st6" width="1.7" height="5.9"/>
					
						<rect id="Rectangle_257" x="224.2" y="68.5" transform="matrix(0.7071 -0.7071 0.7071 0.7071 17.4934 180.9606)" class="st6" width="5.9" height="1.7"/>
					
						<rect id="Rectangle_258" x="236.6" y="89.6" transform="matrix(0.7071 -0.7071 0.7071 0.7071 6.2019 195.8705)" class="st6" width="5.9" height="1.7"/>
					<rect id="Rectangle_259" x="211.7" y="115.9" class="st6" width="1.7" height="5.9"/>
					<rect id="Rectangle_260" x="224.5" y="92.1" class="st6" width="1.7" height="5.9"/>
					<rect id="Rectangle_261" x="244.1" y="71.6" class="st6" width="1.7" height="5.9"/>
					<rect id="Rectangle_262" x="192.8" y="82.5" class="st6" width="1.7" height="5.9"/>
					<rect id="Rectangle_263" x="200.7" y="64.8" class="st6" width="1.7" height="5.9"/>
					<rect id="Rectangle_264" x="154.8" y="68.6" class="st6" width="1.7" height="5.9"/>
					<rect id="Rectangle_265" x="159.5" y="102.4" class="st6" width="1.7" height="5.9"/>
					<circle id="Ellipse_92" class="st6" cx="191.6" cy="115.9" r="1.9"/>
					<circle id="Ellipse_93" class="st6" cx="201.6" cy="124.8" r="1.9"/>
					<circle id="Ellipse_94" class="st6" cx="212.6" cy="106.3" r="1.9"/>
					<circle id="Ellipse_95" class="st6" cx="231.1" cy="119.9" r="1.9"/>
					<circle id="Ellipse_96" class="st6" cx="165.2" cy="119.9" r="1.9"/>
					<circle id="Ellipse_97" class="st6" cx="182.3" cy="91.2" r="1.9"/>
					<circle id="Ellipse_98" class="st6" cx="164.1" cy="84.4" r="1.9"/>
					<circle id="Ellipse_99" class="st6" cx="171.4" cy="66.7" r="1.9"/>
					<circle id="Ellipse_100" class="st6" cx="205.4" cy="80.6" r="1.9"/>
					<circle id="Ellipse_101" class="st6" cx="240.7" cy="57.1" r="1.9"/>
					<circle id="Ellipse_102" class="st6" cx="216.4" cy="73.5" r="1.9"/>
					<circle id="Ellipse_103" class="st6" cx="192.2" cy="60.1" r="1.9"/>
					<circle id="Ellipse_104" class="st6" cx="233" cy="104.4" r="1.9"/>
					
						<rect id="Rectangle_266" x="242.9" y="116.1" transform="matrix(0.7071 -0.7071 0.7071 0.7071 -10.6991 208.0678)" class="st6" width="5.9" height="1.7"/>
					
						<rect id="Rectangle_267" x="253.6" y="83.2" transform="matrix(0.7071 -0.7071 0.7071 0.7071 13.5982 205.166)" class="st6" width="1.7" height="5.9"/>
					<rect id="Rectangle_268" x="264.4" y="90.8" class="st6" width="1.7" height="5.9"/>
					<circle id="Ellipse_105" class="st6" cx="252.6" cy="100.5" r="1.9"/>
					<rect id="Rectangle_269" x="62.4" y="-2.6" class="st6" width="5.9" height="1.7"/>
					<circle id="Ellipse_106" class="st6" cx="79.7" cy="-3.7" r="1.9"/>
					<rect id="Rectangle_270" x="124.7" y="-5.2" class="st6" width="1.7" height="5.9"/>
				</g>
			</g>
		</g>
		<path id="Path_4966" class="st2" d="M189.9,206.5v81.8c-3.9,2.6-7.8,3.9-11.8,1.7c-6.1-3.3-12.4-6.2-18.9-8.6
			c-7.2-2.7-18.3-5.9-24.4-11.9c-4.4-4.4-6.3-10.1-10-8.5c-2.4,1.1-2.9,3.6-2.1,7.7c0.5,2.6,2.6,5.1,5.2,8.5
			c1.7,7.9,6.7,12.3,11.6,16.3H19.3c-3.1,0-5.7-2.5-5.7-5.7v-81.2H189.9z"/>
		<path id="Path_4967" class="st2" d="M139.6,294.3H19.3c-3.7,0-6.6-3-6.6-6.7v-81.1c0-0.6,0.5-1,1-1c0,0,0,0,0,0h176.3
			c0.6,0,1,0.5,1,1v81.9c0,0.3-0.2,0.6-0.5,0.8c-3.1,2.1-7.8,4.5-12.8,1.8c-6-3.3-12.3-6.1-18.8-8.5l-3.9-1.4
			c-7-2.5-15.7-5.6-20.9-10.8c-1.4-1.4-2.6-2.9-3.8-4.5c-2.4-3.2-3.5-4.5-5.1-3.8c-1.2,0.5-2.5,1.7-1.6,6.5c0.4,2.1,2.1,4.3,4.3,7.1
			l0.7,0.9c0.1,0.1,0.2,0.3,0.2,0.4c1.6,7.4,6.2,11.6,11.2,15.7c0.4,0.4,0.5,1,0.2,1.4C140.2,294.2,139.9,294.3,139.6,294.3
			L139.6,294.3z M14.6,207.5v80.1c0,2.6,2.1,4.6,4.7,4.7h117.5c-4.4-3.8-8.2-8-9.7-14.8l-0.6-0.7c-2.3-3-4.2-5.4-4.7-8
			c-0.4-1.7-1.4-7,2.7-8.8c3.2-1.4,5.3,1.4,7.6,4.4c1.1,1.5,2.2,3,3.5,4.3c5,4.8,13.4,7.8,20.1,10.2c1.4,0.5,2.7,1,3.9,1.4
			c6.5,2.5,12.9,5.4,19,8.8c3,1.6,6.2,1.2,10.2-1.4v-80.1L14.6,207.5z"/>
		<g id="Group_315" transform="translate(0 134.879)" class="st7">
			<path id="Path_4968" class="st8" d="M192.8,72.6H9.6c-2.1,0-3.8-1.7-3.8-3.8c0,0,0,0,0,0v-0.5c0-2.1,1.7-3.8,3.8-3.8h183.2
				c2.1,0,3.8,1.7,3.8,3.8v0.5C196.6,70.9,194.9,72.6,192.8,72.6L192.8,72.6z M9.6,66.5c-0.9,0-1.7,0.8-1.7,1.7l0,0v0.5
				c0,0.9,0.8,1.7,1.7,1.7c0,0,0,0,0,0h183.2c0.9,0,1.7-0.8,1.7-1.7l0,0v-0.5c0-0.9-0.8-1.7-1.7-1.7l0,0H9.6z"/>
			<path id="Path_4969" class="st8" d="M139.6,159.4H19.3c-3.7,0-6.6-3-6.6-6.7V71.6c0-0.6,0.5-1,1-1c0,0,0,0,0,0h176.3
				c0.6,0,1,0.5,1,1v81.9c0,0.6-0.4,1-1,1.1s-1-0.4-1.1-1c0-0.1,0-0.1,0-0.2V72.6H14.6v80.1c0,2.6,2.1,4.6,4.7,4.6h120.3
				c0.6,0,1,0.5,1,1C140.6,159,140.1,159.4,139.6,159.4L139.6,159.4L139.6,159.4z"/>
			<path id="Path_4970" class="st8" d="M75.8,51.5c-0.3,0-0.5-0.1-0.7-0.3c-0.4-0.4-0.4-1,0-1.4c0,0,0,0,0,0
				c1.9-1.9,4.7-2.8,7.3-2.3c0.5,0.2,0.9,0.7,0.7,1.3c-0.1,0.5-0.6,0.8-1.1,0.7c-2-0.3-4,0.3-5.4,1.7C76.4,51.4,76.1,51.5,75.8,51.5
				z"/>
			<path id="Path_4971" class="st8" d="M93.8,42.8c-0.2,0-0.4-0.1-0.5-0.2c-0.5-0.3-0.7-0.9-0.4-1.4c0,0,0,0,0,0
				c0.2-0.4,2.2-3.6,5.1-3.7c0.6,0,1,0.5,1,1c0,0.6-0.5,1-1,1c-1.5,0-2.9,2-3.4,2.7C94.4,42.6,94.1,42.8,93.8,42.8z"/>
			<path id="Path_4972" class="st8" d="M91.2,51.3c-0.4,0-0.8-0.2-0.9-0.6c-0.6-1.1-1.3-2.1-2.2-3c-0.4-0.4-0.4-1,0-1.4
				c0.4-0.4,1-0.4,1.4,0c0,0,0,0,0,0c1.1,1,2,2.3,2.7,3.6c0.2,0.5,0,1.1-0.5,1.3C91.5,51.2,91.3,51.3,91.2,51.3z"/>
			<path id="Path_4973" class="st8" d="M89.3,53.4c-0.2,0-0.5-0.1-0.7-0.3c-0.4-0.4-0.5-1-0.1-1.4c1.4-1.6,3.2-2.8,5.3-3.5
				c0.5-0.2,1.1,0.2,1.3,0.7c0,0,0,0,0,0c0.1,0.5-0.2,1.1-0.7,1.2c0,0,0,0,0,0c-1.6,0.6-3.1,1.6-4.3,2.9
				C89.9,53.3,89.6,53.4,89.3,53.4L89.3,53.4z"/>
			<path id="Path_4974" class="st8" d="M86.1,47.2c1-0.9,2.1-1.8,3.2-2.5c0.4-0.3,1-0.2,1.3,0.2c0.1,0.2,0.2,0.3,0.2,0.5
				c0,0.8,0,2.6-1.9,3C87,48.8,85.4,48.4,86.1,47.2z"/>
			<path id="Path_4975" class="st8" d="M98.6,55.8c-0.3,0-0.6-0.1-0.8-0.4c-0.4-0.4-0.3-1.1,0.1-1.4c3.5-2.8,5.6-7,5.7-11.5
				c0.1-5.7-2-11.2-5.9-15.3c-0.3-0.2-0.4-0.6-0.3-0.9c0.4-2.2,0.2-4.5-0.4-6.6c-0.6-2.1-1.5-4.1-2.6-5.9c-4.6,2.6-6.2,10.9-6.2,11
				c-0.1,0.6-0.7,0.9-1.2,0.8c-0.6-0.1-0.9-0.7-0.8-1.2c0,0,0,0,0,0c0-0.4,2.1-10.4,8.2-12.9c0.4-0.2,0.9,0,1.2,0.3
				c1.5,2.2,2.7,4.7,3.4,7.2c0.7,2.3,0.9,4.7,0.6,7.1c4,4.5,6.2,10.4,6.1,16.5c-0.1,5-2.5,9.8-6.4,12.9C99,55.7,98.8,55.8,98.6,55.8
				L98.6,55.8z"/>
			<path id="Path_4976" class="st8" d="M81.6,62C75.2,62,69,59.3,64.8,54.4c-3.3-4.5-4.8-10-4.3-15.5c0.1-0.6,0.6-1,1.1-0.9
				c0.6,0.1,1,0.6,0.9,1.1c-0.5,5,0.9,10,3.9,14c3.4,4.3,12.7,10.1,25.4,4.6c0.5-0.2,1.1,0,1.3,0.5c0,0,0,0,0,0
				c0.2,0.5,0,1.1-0.5,1.3C89.1,61.1,85.4,61.9,81.6,62z"/>
			<path id="Path_4977" class="st8" d="M94.2,25.6L94.2,25.6c-1.8-0.4-3.1-1.7-3.5-3.4c-0.3-1.7,1.5-4.2,2-5c0.3-0.5,1-0.6,1.5-0.2
				c0.4,0.3,0.6,1,0.2,1.4c-0.8,1-1.4,2.2-1.7,3.4c0.3,0.8,0.8,1.5,1.6,1.8c0.6,0.1,0.9,0.6,0.9,1.2C95,25.3,94.6,25.6,94.2,25.6
				L94.2,25.6z"/>
			<path id="Path_4978" class="st8" d="M61.5,40.1c-0.2,0-0.4-0.1-0.6-0.2c-2.6-1.8-7.6-9.3-5.8-12.4c2.3-4,12.2,0.3,14.1,1.2
				c0.5,0.2,0.8,0.8,0.6,1.3c-0.2,0.5-0.8,0.8-1.3,0.6c0,0,0,0-0.1,0c-4.2-1.9-10.6-3.6-11.5-2s2.5,7.9,5.2,9.7
				c0.5,0.3,0.6,1,0.3,1.4C62.2,39.9,61.9,40.1,61.5,40.1z"/>
			<path id="Path_4979" class="st8" d="M64.5,36.4h-0.2c-0.6-0.1-0.9-0.7-0.8-1.2c0.2-0.6,0.1-1.3-0.2-1.9c-0.6-0.7-1.5-1.1-2.4-1.2
				c-0.6,0-1-0.4-1-1s0.4-1,1-1c0.1,0,0.1,0,0.2,0c1.5,0.1,2.9,0.9,3.9,2c0.7,1,0.9,2.3,0.6,3.5C65.4,36.1,65,36.4,64.5,36.4
				L64.5,36.4z"/>
			<path id="Path_4980" class="st8" d="M66.6,29.6c-0.3,0-0.5-0.1-0.7-0.3c-0.4-0.4-0.4-1,0-1.4c0,0,0,0,0,0
				c6-5.8,14.1-8.8,22.4-8.3c0.6,0,1,0.5,1,1.1c0,0.6-0.5,1-1.1,1c0,0,0,0,0,0c-7.7-0.4-15.2,2.3-20.8,7.6
				C67.1,29.4,66.9,29.6,66.6,29.6L66.6,29.6z"/>
			<path id="Path_4981" class="st8" d="M104,38c-0.3,0-0.5-0.1-0.7-0.3c-0.4-0.4-0.4-1,0-1.4c0,0,0,0,0,0c0.7-0.7,17-16.7,37.2-12.3
				c0.5,0.2,0.9,0.7,0.7,1.3c-0.1,0.5-0.6,0.8-1.1,0.7c-19.1-4.2-35.2,11.6-35.4,11.8C104.5,37.9,104.3,38,104,38z"/>
			<path id="Path_4982" class="st8" d="M142.4,66.5H99.3c-0.4,0-8.4-0.5-8.5-5.7c-0.1-0.9,0.1-1.8,0.5-2.6c1-2.3,3.4-3.8,7.1-4.4
				c1.2-0.2,2.5-0.3,3.7-0.3c1.5,0,3.6,0.2,6.3,0.4c10.7,0.8,30.7,2.4,38.8-5.1c0.4-0.4,1-0.4,1.4-0.1s0.4,1,0.1,1.4
				c0,0-0.1,0.1-0.1,0.1c-8.8,8.2-28.6,6.6-40.4,5.7c-2.7-0.2-4.8-0.4-6.1-0.4c-1.1,0-2.3,0.1-3.4,0.3C96.7,56.2,94,57,93.2,59
				c-0.2,0.5-0.3,1.1-0.3,1.7c0.1,3.3,6.5,3.7,6.6,3.7h42.9c3.1,0,13.2-0.4,18.9-6.2c2.9-3,4.4-7.1,4.2-11.3
				c-0.1-13.6-10.2-29.4-29.2-33.2c-13.9-2.8-37.7,6.4-37.9,6.5c-0.5,0.2-1.1,0-1.3-0.6c-0.2-0.5,0-1.1,0.6-1.3c0,0,0,0,0,0
				c1-0.4,24.6-9.5,39.1-6.6c15.2,3,30.7,16.1,30.9,35.2c0.2,4.7-1.5,9.3-4.8,12.7C156.6,65.8,146.5,66.5,142.4,66.5z"/>
			<path id="Path_4983" class="st8" d="M67.7,65.8c-0.3,0-0.5,0-0.8,0c-1.1-0.2-2.1-0.8-2.8-1.7c-0.8-1.1-1.1-2.4-0.8-3.7
				c0.7-2.1,2.2-4,4.1-5.1c0.4-0.3,1.1-0.3,1.4,0.2c0.3,0.4,0.3,1.1-0.2,1.4c-0.1,0.1-0.1,0.1-0.2,0.1c-1.5,0.8-2.6,2.2-3.2,3.8
				c-0.1,0.8,0,1.5,0.5,2.1c0.3,0.5,0.8,0.8,1.4,0.9c2,0.3,4.8-1.4,5.7-2.2c0.5-0.3,1.1-0.3,1.4,0.2c0.3,0.4,0.3,1.1-0.2,1.4
				c0,0,0,0,0,0C72.3,64.6,70,65.5,67.7,65.8L67.7,65.8z"/>
			<path id="Path_4984" class="st8" d="M78.7,66.5c-2,0.2-4-0.6-5.2-2.1c-0.9-1.5-1.1-3.4-0.6-5.1c0.2-0.5,0.7-0.8,1.3-0.6
				c0,0,0,0,0,0c0.5,0.2,0.8,0.7,0.6,1.3l0,0c-0.4,1.1-0.3,2.3,0.3,3.3c0.9,1,2.2,1.4,3.6,1.2l0,0c3.3,0,6.7-0.6,9.8-1.8
				c1.1-0.4,2.3-0.7,3.5-0.9c0.6,0,1.1,0.4,1.1,1c0,0.6-0.4,1.1-1,1.1c-1,0.2-2,0.4-3,0.8C85.8,65.8,82.3,66.5,78.7,66.5L78.7,66.5z
				"/>
		</g>
		<path id="Path_4985" class="st2" d="M545,306c-13.6,18.3-74.2,26.5-133.5,26.6c-71.8,0-98.6-9.3-121.3-22.2
			c-13.5-7.6-16.3-39.7-16.3-39.7c28.1-18.9,32.8-30.7,32.8-30.7s63.3,31.2,128.4-0.4c7.7-3.8,14.8-7.5,21.3-11.2
			c2.1-4,3.8-8,5.3-12.2c3.9,1.6,8.2,2.2,12.4,1.9c0.9-0.1,1.7-0.3,2.6-0.6c2.4-0.8,4.5-2.4,5.9-4.6c2-3.3,3.4-6.9,4.1-10.7
			c1.9-8.4,16.1-70.8,5.6-91.7c-0.8-1.8-1.9-3.5-3.1-5.1c5-3.1,20.5-13.1,41.3-7.2c27.7,7.8,35.8,61,40.9,93.6S558.7,287.7,545,306z
			"/>
		<path id="Path_4986" class="st2" d="M410.8,333.5c-68.3,0-96.1-8.2-121.1-22.3c-13.8-7.8-16.7-39.2-16.8-40.5
			c0-0.4,0.2-0.7,0.5-0.9c27.4-18.3,32.5-30,32.5-30c0.1-0.3,0.3-0.5,0.6-0.6c0.3-0.1,0.6-0.1,0.8,0c0.6,0.3,63.6,30.6,127.5-0.4
			c6.8-3.3,13.6-6.8,21-11c2-3.9,3.7-7.8,5.1-11.9c0.1-0.3,0.3-0.5,0.5-0.6c0.3-0.1,0.5-0.1,0.8,0c3.8,1.6,7.9,2.2,11.9,1.8
			c0.8-0.1,1.6-0.3,2.4-0.5c2.2-0.7,4.1-2.2,5.4-4.2c1.9-3.2,3.3-6.7,3.9-10.3c11.9-51.8,10.7-81,5.7-91c-0.8-1.8-1.8-3.4-3-5
			c-0.2-0.2-0.2-0.5-0.2-0.8c0.1-0.3,0.2-0.5,0.5-0.7l0.4-0.2c5.2-3.2,21.1-12.9,41.7-7.1c28,7.9,36.1,59.3,41.4,93.4l0.2,1.1
			c5.2,33.2-13.1,96.9-26.6,115c-14.9,19.8-81.6,26.9-134.3,26.9L410.8,333.5z M275.1,271.1c0.5,4.4,3.8,31.5,15.8,38.3
			c24.6,13.9,52.2,22,120,22h0.8c68.7,0,120.8-10.3,132.6-26.2l0,0c13.3-17.9,31.4-80.7,26.2-113.5l-0.2-1.1
			c-4.9-31.5-13.2-84.2-40-91.7c-19.2-5.4-33.6,2.9-39.5,6.5c0.9,1.4,1.7,2.8,2.5,4.3c10.1,20-1.6,75.9-5.4,92.5
			c-0.7,3.9-2.2,7.6-4.2,11c-1.5,2.4-3.8,4.1-6.5,5c-0.9,0.3-1.8,0.5-2.8,0.6c-4,0.4-8.1-0.2-11.9-1.6c-1.4,3.9-3.2,7.7-5.1,11.4
			c-0.1,0.2-0.2,0.3-0.4,0.4c-7.5,4.2-14.5,7.8-21.4,11.2c-60.5,29.4-120.2,4.5-128.4,0.8C305.6,244.6,298.5,255.4,275.1,271.1
			L275.1,271.1z"/>
		<path id="Path_4987" class="st0" d="M482.7,213.9c-0.4,0-0.7-0.2-0.9-0.5c-0.3-0.5-0.1-1.1,0.3-1.4c0,0,0,0,0,0
			c18.4-11.2,34.3-21,53.7-23c0.6-0.1,1.1,0.3,1.2,0.8c0.1,0.6-0.3,1.1-0.8,1.2c-0.1,0-0.1,0-0.2,0c-18.9,2-34.6,11.6-52.9,22.7
			C483,213.8,482.9,213.9,482.7,213.9z"/>
		<path id="Path_4988" class="st0" d="M171.5,328.4c-2,0-4-0.6-5.8-1.7c-5.5-3.2-8.1-7.9-11.5-13.8c-2.1-3.8-4.3-7.4-6.8-11
			c-2.2-2.7-4.7-5.1-7.5-7.1c-5.1-4.1-10.9-8.7-12.9-17.4l-0.6-0.7c-2.3-2.8-4.2-5.3-4.7-8c-0.4-1.7-1.4-7,2.7-8.8
			c3.2-1.4,5.3,1.4,7.6,4.4c1.1,1.6,2.2,3,3.5,4.4c4.9,4.9,13.4,7.9,20.2,10.3c1.4,0.5,2.7,1,3.9,1.4c6.5,2.4,12.9,5.3,19,8.7
			c5.5,3,10.9-1.5,17.1-6.6l0.8-0.6c0.4-0.4,1.1-0.3,1.4,0.1c0,0,0,0,0,0c0.4,0.4,0.3,1.1-0.1,1.4l-0.8,0.6
			c-6.2,5.1-12.6,10.5-19.4,6.8c-6-3.3-12.3-6.1-18.8-8.5c-1.2-0.5-2.5-0.9-3.9-1.4c-7-2.5-15.7-5.6-20.9-10.8
			c-1.4-1.4-2.6-2.9-3.8-4.5c-2.4-3.2-3.5-4.4-5.1-3.8c-1.2,0.5-2.5,1.7-1.6,6.5c0.4,2.1,2.1,4.3,4.3,7.1l0.7,0.9
			c0.1,0.1,0.2,0.3,0.2,0.4c1.7,8.1,7.1,12.4,12.2,16.5c3,2.1,5.6,4.6,7.9,7.5c2.5,3.6,4.8,7.3,6.9,11.2c3.4,5.9,5.7,10.1,10.7,13
			c6.2,3.6,10.8-0.2,17.7-6c2.1-1.7,4.5-3.8,7.2-5.7c6.2-4.2,12.7-7.7,19.6-10.5l0.9-0.4c3.9-1.7,7.6-3.4,11.2-5.1l4.3-2
			c3.5-1.7,6.9-3.4,10.2-5c1.5-0.8,2.9-1.5,4.4-2.2c4.4-2.3,8.3-4.4,12.1-6.5c1.5-0.8,2.9-1.7,4.3-2.4c4.3-2.5,8.4-5,11.9-7.4
			c1-0.6,1.9-1.2,2.8-1.8l1.4-0.9c4.6-3.2,8.8-6.3,12.6-9.3c1.3-1,2.6-2.1,4.1-3.4c3.3-2.8,6.4-5.9,9.3-9.2c1.4-1.6,2.6-3.2,3.8-4.9
			c0.6-0.8,1.1-1.7,1.5-2.6c0.1-0.3,0.3-0.5,0.6-0.6c0.3-0.1,0.6-0.1,0.8,0c0.6,0.3,63.7,30.6,127.5-0.4c3-1.4,6.1-3,9.6-4.8
			l4.4-2.3c9.8-5.2,18.5-10.4,25-14.4c0.5-0.2,1.1,0.1,1.3,0.6c0.1,0.4,0,0.8-0.3,1.1c-6.5,4-15.2,9.2-25.1,14.4l-4.4,2.3
			c-3.5,1.8-6.6,3.4-9.6,4.8c-60.5,29.4-120.2,4.5-128.4,0.9c-0.3,0.5-0.6,1.1-1.2,2c-1.2,1.8-2.5,3.5-4,5.1c-3,3.4-6.2,6.5-9.5,9.4
			c-1.5,1.3-2.8,2.4-4.1,3.4c-3.8,3.1-8,6.2-12.7,9.4l-1.4,0.9c-0.9,0.6-1.8,1.2-2.8,1.8c-3.7,2.4-7.8,4.9-12.1,7.4
			c-1.4,0.8-2.8,1.7-4.3,2.5c-3.8,2.1-7.7,4.3-12.1,6.6l-4.4,2.3c-3.3,1.7-6.7,3.3-10.2,5l-4.3,2.3c-3.6,1.7-7.3,3.4-11.2,5.1
			l-0.9,0.4c-6.7,2.8-13.1,6.2-19.2,10.2c-2.6,1.9-4.9,3.8-7.1,5.6C180.7,324.9,176.3,328.4,171.5,328.4z"/>
		<path id="Path_4989" class="st0" d="M228.9,256c-0.3,0-0.6-0.1-0.8-0.3c-0.4-0.4-0.3-1.1,0.1-1.4c16-14.2,38.7-34.6,49.9-45.4
			c15.7-15.1,22.3-15.6,35.8-15.3c15,0.3,54.7,1,79.6,8.3c0.5,0.1,0.9,0.7,0.7,1.2c-0.1,0.5-0.7,0.9-1.2,0.7c0,0,0,0-0.1,0
			c-24.6-7.2-64.1-7.9-79-8.2c-13.3-0.3-19.2,0.2-34.4,14.8c-11.3,10.8-34,31.3-50,45.4C229.4,256,229.2,256,228.9,256z"/>
		<path id="Path_4990" class="st0" d="M459.4,177.2c-0.6,0-1-0.5-1-1c0,0,0,0,0,0c0-13.6,2.4-40.4,2.4-40.6c0.1-0.6,0.6-1,1.1-0.9
			c0.6,0.1,1,0.5,0.9,1.1c0,0.3-2.4,26.9-2.4,40.4C460.4,176.8,460,177.2,459.4,177.2L459.4,177.2L459.4,177.2z"/>
		<path id="Path_4991" class="st0" d="M471.9,219.3c-15.7,0-36.9-17.9-46-26.3c-15.3-14.1-24.8-20.2-26.6-21.3
			c-6.9,1.1-13.9-0.4-19.7-4.3c-0.9-0.6-1.9-1.1-3-1.4c-2.5-0.3-5.1-0.1-7.5,0.6c-2,0.5-3.9,0.8-6,1c-2.6,0.2-4.2-0.2-4.8-1.4
			c-0.5-1.2-0.2-2.6,0.6-3.6c0-0.1,0.1-0.1,0.2-0.2c3.9-3.4,17.9-10.6,21-10.6l0,0c9.5,0.7,18.8,2.3,28,4.7
			c20,6.6,55.8,25.7,56.1,25.9c0.5,0.2,0.8,0.8,0.6,1.3c-0.2,0.5-0.8,0.8-1.3,0.6c-0.1,0-0.2-0.1-0.2-0.1
			c-0.4-0.2-36-19.2-55.8-25.7c-2.2-0.7-18.5-4.3-27.4-4.6l0,0c-1.9,0-15.2,6.4-19.5,10.1c-0.3,0.5-0.6,1.1-0.4,1.3
			c0.1,0.2,0.9,0.5,2.9,0.4c1.9-0.2,3.8-0.5,5.7-1c2.7-0.7,5.5-1,8.2-0.6c1.4,0.3,2.7,0.9,3.8,1.7c5.5,3.7,12.2,5.2,18.8,4
			c0.2,0,0.5,0,0.7,0.1c0.4,0.2,10.1,5.9,27.3,21.7c20.6,19,39,28.4,49.2,25.1c4.5-1.5,7.3-5.8,9.3-14.6c3.8-16.5,15.3-71.8,5.6-91
			l-0.1-0.2c-2.4-4.7-7.3-14.5-27.9-13.4c-2.3,2.4-17.2,17.3-29.6,16.7c-1.4,0.1-2.8-0.7-3.4-2c-2-4.3,4.6-13.8,4.7-13.9
			c1.8-1.9,2.6-4.6,2-7.2c-0.1-0.6,0.3-1.1,0.9-1.2c0.5-0.1,1.1,0.3,1.2,0.8c0.6,3.2-0.3,6.5-2.5,8.9c-1.3,1.7-5.5,9.1-4.4,11.6
			c0.1,0.2,0.4,0.8,1.7,0.8c12.3,0.5,28.2-16.2,28.4-16.4c0.2-0.2,0.4-0.3,0.7-0.3c22.3-1.3,27.7,9.4,30.3,14.5l0.1,0.2
			c10,19.8-1.7,75.7-5.5,92.4c-2.2,9.5-5.4,14.3-10.7,16C475.4,219,473.7,219.3,471.9,219.3z"/>
		<path id="Path_4992" class="st0" d="M406.5,176.2L406.5,176.2c-0.6,0-1-0.5-1-1.1c0,0,0,0,0,0c0-0.5,0.9-12.9,5.4-17.3
			c0.4-0.4,1-0.4,1.4,0c0,0,0,0,0,0c0.4,0.4,0.4,1,0,1.4c0,0,0,0,0,0c-4,3.9-4.8,15.8-4.8,16C407.6,175.8,407.1,176.3,406.5,176.2
			C406.5,176.2,406.5,176.2,406.5,176.2z"/>
		<path id="Path_4993" class="st0" d="M436.6,91.6c-4,0-8-1.2-11.4-3.4c-15.7-10.1-9.7-45.4-9.4-46.9c0.1-0.5,0.7-0.9,1.2-0.8
			c0.5,0.1,0.8,0.6,0.8,1.1c0,0.4-6,35.5,8.5,44.8c6.2,3.9,13.9,4.1,20.3,0.5c0.5-0.3,1.1-0.1,1.4,0.3c0.3,0.5,0.1,1.1-0.3,1.4
			C444.3,90.5,440.5,91.5,436.6,91.6L436.6,91.6z"/>
		<path id="Path_4994" class="st0" d="M398.7,156.2c-0.3,0-0.7-0.2-0.9-0.5c-5.7-9-3.4-20.9,5.2-27c2.9-2.1,5.3-3.8,7.3-5.3
			c4.1-2.8,8.1-5.9,11.9-9.2c0.4-0.4,1-0.4,1.4,0c0.4,0.4,0.4,1,0,1.4c0,0-0.1,0.1-0.1,0.1c-3.9,3.3-7.9,6.5-12.1,9.3
			c-2.1,1.5-4.4,3.2-7.3,5.3c-7.8,5.5-9.9,16.2-4.7,24.3c0.3,0.5,0.2,1.1-0.3,1.4c0,0,0,0,0,0C399.1,156.2,398.9,156.2,398.7,156.2z
			"/>
		<path id="Path_4995" class="st0" d="M406.5,128.5c-0.1,0-0.3,0-0.4,0c-0.5-0.2-0.8-0.8-0.5-1.3c0,0,0,0,0,0
			c1.2-2.9,8.2-16.8,11.6-20.1c4.6-4.5,17.9-9,18.4-9.2c0.5-0.2,1.1,0.1,1.3,0.6c0.2,0.5-0.1,1.1-0.6,1.3c0,0,0,0,0,0
			c-0.1,0-13.4,4.6-17.6,8.7c-3,2.9-9.9,16.4-11.1,19.4C407.2,128.3,406.9,128.5,406.5,128.5z"/>
		<path id="Path_4996" class="st0" d="M457,228.4c-0.2,0-0.3,0-0.5-0.1c-0.5-0.3-0.7-0.9-0.4-1.4c0,0,0,0,0,0
			c1.9-3.6,3.5-7.3,4.8-11.1c0.2-0.5,0.7-0.8,1.3-0.7c0.5,0.2,0.8,0.7,0.7,1.3c-1.3,3.9-3,7.8-4.9,11.4
			C457.7,228.2,457.4,228.4,457,228.4z"/>
		<path id="Path_4997" class="st0" d="M391.7,194.6c-0.6,0-1-0.4-1.1-1c0-0.5,0.3-1,0.8-1c0.5-0.1,11.5-2.9,8.9-20.6
			c-0.1-0.6,0.3-1.1,0.8-1.2c0.6-0.1,1.1,0.3,1.2,0.8c0,0,0,0,0,0c2.9,19.7-10.3,22.9-10.5,22.9L391.7,194.6z"/>
		<path id="Path_4998" class="st0" d="M245.9,322.6c-2.3,0-4.6-0.3-6.8-0.7c-0.6-0.1-1.4-0.4-2.3-0.6c-9.3-2.8-19.2-3.6-28.8-2.3
			c-16.1,2.2-22.2,1.6-22.4,1.5c-0.6,0-1-0.5-1-1.1c0-0.6,0.5-1,1.1-1c0,0,0.1,0,0.1,0c0,0,6.1,0.6,21.9-1.5
			c9.9-1.4,20.1-0.6,29.7,2.4l2.3,0.6c4.2,1,11.9,1.3,15.9-1.8c1.6-1.3,2.5-3.3,2.4-5.3c0-2.1-0.2-4.3-0.6-6.4
			c-0.9-6.4-1.7-13,4.2-28.7c0.2-0.5,0.8-0.8,1.3-0.6c0.5,0.2,0.8,0.8,0.6,1.3c0,0,0,0,0,0c-5.8,15.2-4.9,21.6-4.1,27.7
			c0.4,2.2,0.6,4.4,0.6,6.7c0.1,2.7-1.1,5.3-3.2,6.9C253.5,321.8,249.7,322.8,245.9,322.6z"/>
		<path id="Path_4999" class="st0" d="M434.5,212.1c-0.2,0-0.4,0-0.5-0.1c-13.7-8-28.5-14-43.9-17.7c-0.4,0-2.5,0.8-10.2,6.1
			c-0.5,0.3-1.1,0.2-1.4-0.3c0,0,0,0,0,0c-0.3-0.5-0.2-1.1,0.3-1.4c9.6-6.6,11.3-6.6,11.9-6.4c15.7,3.8,30.7,9.8,44.6,18
			c0.5,0.3,0.6,0.9,0.4,1.4C435.2,211.9,434.9,212.1,434.5,212.1z"/>
		<path id="Path_5000" class="st0" d="M410.8,333.5c-68.2,0-96-8.2-121.1-22.4c-7.8-4.4-12.1-16.4-14.3-25.7
			c-0.1-0.6,0.3-1.1,0.9-1.1c0.5-0.1,0.9,0.2,1.1,0.7c2.1,8.9,6.2,20.4,13.3,24.4c24.7,14,52.3,22.2,120.1,22.2h0.8
			c83.5,0,123.6-14.2,132.6-26.2c13.4-17.9,31.4-80.7,26.2-113.5l-0.2-1.1c-4.9-31.5-13.2-84.2-39.9-91.7c-4.8-1.4-9.8-1.9-14.8-1.7
			c-0.6,0-1-0.4-1.1-1c0-0.6,0.4-1,1-1.1c5.2-0.3,10.4,0.3,15.5,1.7c28,7.9,36.1,59.3,41.4,93.4l0.2,1.1
			c5.2,33.2-13.1,96.9-26.6,115c-14.9,20-81.6,27.1-134.3,27.1L410.8,333.5z"/>
		<path id="Path_5001" class="st0" d="M350.7,181.5L350.7,181.5c-0.6,0-1-0.5-1-1c0-0.6,0.5-1,1-1c0.6,0,1,0.5,1,1l0,0
			C351.7,181,351.3,181.4,350.7,181.5C350.7,181.5,350.7,181.5,350.7,181.5z"/>
		<ellipse id="Ellipse_107" class="st0" cx="459.3" cy="56.8" rx="1" ry="1.5"/>
		<path id="Path_5002" class="st0" d="M459.3,59.3c-1.2-0.2-2.1-1.3-2-2.5c-0.3-1.1,0.4-2.2,1.5-2.4c1.1-0.3,2.2,0.4,2.4,1.5
			c0.1,0.3,0.1,0.6,0,0.9C461.5,58,460.6,59.1,459.3,59.3z"/>
		<path id="Path_5003" class="st0" d="M461,52.7c-1.6,0.6-2.7,2.1-2.8,3.8"/>
		<path id="Path_5004" class="st0" d="M458.3,57.5c-0.6,0-1-0.4-1-1c0,0,0,0,0,0c0.1-2.1,1.4-4,3.4-4.7c0.5-0.2,1.1,0.1,1.3,0.6
			c0,0,0,0,0,0c0.2,0.5-0.1,1.1-0.6,1.3c-1.2,0.4-2,1.5-2.1,2.8C459.3,57,458.9,57.5,458.3,57.5C458.3,57.5,458.3,57.5,458.3,57.5
			L458.3,57.5z"/>
		<path id="Path_5005" class="st0" d="M463,97.3c-0.5,0-0.9-0.4-1-0.8c-0.3-1.3-0.5-2.5-0.7-3.6c-0.1-0.6,0.3-1.1,0.8-1.2
			c0,0,0,0,0,0c0.6-0.1,1.1,0.3,1.2,0.8c0.2,1.2,0.4,2.4,0.7,3.6c0.1,0.5-0.2,1.1-0.8,1.2c0,0,0,0,0,0L463,97.3z"/>
		<path id="Path_5006" class="st0" d="M471.1,76.7c-6.1,3.7-8.9,16.1-8.9,16.1c-3.7-20.9-0.8-29.3-0.8-29.3c5.3-3.9,4.7-12.9,1-14.8
			s-7.3,1.3-7.6,5.8s-3.5,9.7-4.1,13.8c-0.6,3.4,0.1,7,1.9,9.9c1.6,2.6-0.6,6.2-0.5,5.9c1.9-5.7-2.3-9.6-3.2-11.9
			c-1.7-4.7,0.7-9.6,1-15.7s-4.8-13.6-11-15c-3.9-0.9-7.6-2.4-11.1-4.4c-10.7,3.1-15.3,7.9-15.3,15.3c0,6.4-3,9.2-3,9.2
			c2.1-4.6,0.4-6.8,0-15.3s4.6-10.7,4.6-10.7s0.9-8,2.9-10.7c2.9-3.9,8.1-9.8,27.5-12.2c9.8-1.5,19.7,2.1,26.3,9.5
			c4.9,5.6,8.4,12.2,10.2,19.4c0.3,1.1,0.6,2.1,0.8,3.2C484.9,60.8,476.8,73.2,471.1,76.7z"/>
		<path id="Path_5007" class="st0" d="M462.2,93.8L462.2,93.8c-0.5,0-0.9-0.4-1-0.8c-3.7-20.9-0.9-29.5-0.8-29.8
			c0.1-0.2,0.2-0.4,0.4-0.5c2.4-2,3.7-5.1,3.4-8.3c0-1.9-0.8-3.7-2.3-4.8c-1-0.6-2.3-0.6-3.3,0c-1.7,1.1-2.7,2.9-2.7,4.9
			c-0.3,2.8-1.1,5.5-2.2,8c-0.8,1.9-1.5,3.9-1.9,5.9c-0.6,3.2,0.1,6.5,1.7,9.3c1.7,2.9-0.2,6.7-0.7,7.2c-0.3,0.3-0.9,0.4-1.3,0.2
			c-0.4-0.2-0.6-0.7-0.4-1.2c1.3-3.9-0.5-6.8-2-9.1c-0.5-0.7-0.9-1.4-1.2-2.1c-1.2-3.3-0.6-6.6,0.1-10.1c0.4-2,0.7-4,0.9-6.1
			c0.3-5.9-4.7-12.7-10.2-14c-3.9-0.9-7.6-2.3-11-4.3c-9.8,2.9-14.1,7.3-14.2,14.2c0,6.9-3.2,9.8-3.4,9.9c-0.4,0.3-0.9,0.3-1.3,0
			c-0.4-0.3-0.5-0.8-0.3-1.2c1.3-2.8,1-4.5,0.6-8c-0.2-1.7-0.5-3.9-0.7-6.8c-0.4-7.5,3.2-10.6,4.7-11.4c0.2-2,1.1-8.2,3-10.7
			c2.5-3.2,7.6-10,28.3-12.6c10.1-1.5,20.4,2.2,27.2,9.8c5,5.7,8.6,12.5,10.5,19.8c0.3,1,0.6,2.1,0.8,3.3c3.3,16.2-4.5,29.2-11,33.1
			c-5.6,3.4-8.4,15.3-8.4,15.5C463.1,93.5,462.7,93.8,462.2,93.8L462.2,93.8z M462.2,64.1c-0.4,1.5-1.9,8.9,0.2,24.1
			c1.4-4.1,4-9.9,8.1-12.4l0,0c5.8-3.6,13.1-15.9,10.1-31c-0.2-1.1-0.5-2.1-0.7-3.1c-1.8-7-5.3-13.5-10-19
			c-6.4-7.1-16-10.6-25.4-9.2c-19.9,2.4-24.5,8.7-26.8,11.8c-1.5,2-2.4,8.1-2.7,10.2c0,0.4-0.3,0.7-0.6,0.8c-0.2,0.1-4.4,2.1-4,9.7
			c0.2,2.8,0.5,4.9,0.7,6.7c0,0.5,0.1,1.1,0.2,1.6c0.1-0.7,0.1-1.4,0.1-2.1c0-8.1,5-13.1,16.1-16.3c0.3-0.1,0.6,0,0.8,0.1
			c3.4,2,7,3.4,10.8,4.3c6.6,1.5,12.2,9.1,11.9,16.1c-0.2,2.1-0.5,4.3-0.9,6.3c-0.7,2.6-0.9,5.2-0.5,7.9c0-0.9,0.1-1.8,0.2-2.7
			c0.4-2.2,1.1-4.3,2-6.4c1.1-2.3,1.8-4.8,2.1-7.3c0.1-2.7,1.5-5.2,3.9-6.6c1.6-0.9,3.7-0.9,5.3,0c2.2,1.4,3.4,3.9,3.4,6.5
			C466.7,58,465.2,61.7,462.2,64.1L462.2,64.1z"/>
		<path id="Path_5008" class="st0" d="M487.5,48.4c-2.8,0.3-5.6-0.2-8.2-1.5c-0.2-0.9-0.4-1.7-0.6-2.7c-1.6-6-4.5-11.6-8.7-16.3
			c0.6-4.5,3.5-8.3,7.7-10.1c8.5-3.6,16.2,1,19.1,11.9C500.1,42,492.9,47.6,487.5,48.4z"/>
		<path id="Path_5009" class="st0" d="M486,49.5c-2.5,0-4.9-0.6-7.1-1.7c-0.3-0.1-0.5-0.4-0.5-0.7c-0.2-0.9-0.4-1.7-0.6-2.6
			c-1.5-5.9-4.4-11.3-8.4-15.9c-0.2-0.2-0.3-0.5-0.3-0.8c0.6-4.8,3.8-9,8.3-10.9c3.6-1.7,7.8-1.7,11.5,0c4.2,2.1,7.4,6.5,9,12.7
			c1.9,7.1,0.3,11.7-1.4,14.3c-2,3-5.2,5-8.7,5.6l0,0C487.1,49.5,486.5,49.5,486,49.5z M480.2,46.2c2.2,1,4.7,1.4,7.1,1.2
			c3-0.5,5.6-2.2,7.3-4.7c2.1-3.2,2.5-7.6,1.2-12.7c-1.5-5.6-4.3-9.6-8-11.4c-3.1-1.4-6.7-1.4-9.8,0c-3.7,1.6-6.3,4.9-7,8.9
			c4,4.7,6.9,10.3,8.5,16.4C479.8,44.7,480.1,45.4,480.2,46.2L480.2,46.2z"/>
		<path id="Path_5010" class="st0" d="M429.5,77.5c-0.9,0-1.8-0.2-2.6-0.6c-0.4-0.4-0.4-1,0-1.4c0.3-0.3,0.7-0.4,1-0.3
			c0.2,0,3.3,1.7,6.4-2.8c0.3-0.5,1-0.6,1.4-0.2c0.5,0.3,0.6,0.9,0.3,1.4C433.8,76.7,431.3,77.5,429.5,77.5z"/>
		<path id="Path_5011" class="st0" d="M425.7,70c-0.6,0-1.2-0.1-1.7-0.4c-0.9-0.5-1.5-1.3-1.7-2.3c-0.2-1.9,0.1-3.8,1.1-5.5
			c0.2-0.4,0.4-0.8,0.5-1.2c0.4-1.5,0.5-3,0.1-4.5c-0.2-0.5,0.2-1.1,0.7-1.3c0.5-0.2,1.1,0.2,1.3,0.7c0.5,1.9,0.4,3.9-0.2,5.7
			c-0.1,0.4-0.3,0.9-0.6,1.4c-0.8,1.3-1.1,2.7-1,4.2c0.2,0.7,0.5,0.9,0.6,0.9c0.7,0.2,1.4,0.2,2.1-0.1c0.5-0.2,1.1,0,1.3,0.5
			c0.2,0.5,0,1.1-0.5,1.3c0,0,0,0,0,0C427.1,69.8,426.4,70,425.7,70L425.7,70z"/>
		<path id="Path_5012" class="st0" d="M432.4,57.8c-0.2,0-0.4-0.1-0.6-0.2c-0.4-0.3-0.6-0.9-0.3-1.4c0.2-0.3,2.1-2.9,8.1-1.1
			c0.5,0.2,0.8,0.7,0.7,1.3c-0.2,0.5-0.7,0.8-1.3,0.7c-4.5-1.3-5.8,0.3-5.8,0.3C433,57.7,432.7,57.8,432.4,57.8L432.4,57.8z"/>
		<path id="Path_5013" class="st0" d="M434.5,59.7c-1,0-1.7-0.9-1.7-2.2s0.7-2.2,1.7-2.2c1,0,1.7,0.9,1.7,2.2S435.5,59.7,434.5,59.7
			z"/>
		<path id="Path_5014" class="st0" d="M417.5,60c-0.3,0-0.5-0.1-0.7-0.3c-0.4-0.4-0.4-1,0-1.4c1.5-1.3,3.5-1.7,5.3-1.2
			c0.6,0.1,0.9,0.7,0.8,1.2c-0.1,0.5-0.6,0.9-1.2,0.8c-1.2-0.4-2.4-0.1-3.4,0.6C418.1,59.9,417.8,60,417.5,60z"/>
		<path id="Path_5015" class="st0" d="M419.8,62.2c-1,0-1.7-0.9-1.7-2.2s0.7-2.2,1.7-2.2c1,0,1.7,0.9,1.7,2.2S420.8,62.2,419.8,62.2
			z"/>
		<path id="Path_5016" class="st0" d="M431.1,50.9c-0.6,0-1-0.5-1-1c0-0.3,0.2-0.7,0.5-0.9c3-1.6,6.6-1.8,9.8-0.4
			c0.5,0.2,0.8,0.8,0.6,1.3c-0.2,0.5-0.8,0.8-1.3,0.6c-2.6-1.1-5.5-1.1-8,0.2C431.4,50.8,431.2,50.9,431.1,50.9z"/>
		<path id="Path_5017" class="st0" d="M416,54.6c-0.2,0-0.3,0-0.4-0.1c-0.5-0.3-0.7-0.9-0.5-1.4c0.1-0.3,1.3-2.5,6.5-2
			c0.6,0.1,0.9,0.6,0.8,1.2c-0.1,0.5-0.5,0.8-1,0.8c-3.6-0.4-4.4,0.8-4.4,0.9C416.8,54.4,416.4,54.6,416,54.6z"/>
		<path id="Path_5018" class="st0" d="M206.3,293.4c-0.4,0-0.7-0.2-0.9-0.5c-2.4-3.6-5.5-6.8-8.9-9.4c-0.4-0.3-0.5-1-0.2-1.4
			c0.3-0.4,1-0.5,1.4-0.2c0,0,0,0,0,0c3.7,2.8,6.9,6.2,9.5,10c0.3,0.5,0.1,1.1-0.4,1.4C206.6,293.3,206.5,293.4,206.3,293.4
			L206.3,293.4z"/>
		<path id="Path_5019" class="st0" d="M362.8,192c-0.2,0-0.3,0-0.5-0.1c-0.3-0.2-33.8-18-50.4-24.5c-18.5-7.3-23.9-4.3-24-4.3
			c-0.5,0.3-1.1,0.1-1.4-0.3c-0.3-0.5-0.2-1.1,0.3-1.4c0.6-0.4,6.3-3.5,25.8,4.1c16.7,6.6,50.3,24.4,50.6,24.6
			c0.5,0.3,0.7,0.9,0.4,1.4C363.6,191.8,363.2,192,362.8,192z"/>
	</g>
</g>
</svg>
